G04 EAGLE Gerber RS-274X export*
G75*
%MOMM*%
%FSLAX34Y34*%
%LPD*%
%INTop Copper*%
%IPPOS*%
%AMOC8*
5,1,8,0,0,1.08239X$1,22.5*%
G01*
%ADD10C,0.152400*%
%ADD11P,1.539592X8X22.500000*%
%ADD12P,1.429621X8X22.500000*%
%ADD13R,1.610000X1.610000*%
%ADD14C,1.610000*%
%ADD15C,1.320800*%
%ADD16C,1.676400*%
%ADD17R,1.600000X1.600000*%
%ADD18C,1.600000*%
%ADD19C,2.247900*%
%ADD20C,5.842000*%
%ADD21C,1.524000*%
%ADD22P,1.429621X8X202.500000*%
%ADD23R,1.676400X1.676400*%
%ADD24C,1.981200*%
%ADD25C,0.756400*%
%ADD26C,2.540000*%


D10*
X51562Y19784D02*
X62399Y19784D01*
X56981Y14365D02*
X56981Y25202D01*
X69138Y26106D02*
X73654Y29718D01*
X73654Y13462D01*
X69138Y13462D02*
X78170Y13462D01*
X84770Y13462D02*
X90188Y13462D01*
X90306Y13464D01*
X90424Y13470D01*
X90542Y13479D01*
X90659Y13493D01*
X90776Y13510D01*
X90893Y13531D01*
X91008Y13556D01*
X91123Y13585D01*
X91237Y13618D01*
X91349Y13654D01*
X91460Y13694D01*
X91570Y13737D01*
X91679Y13784D01*
X91786Y13834D01*
X91891Y13889D01*
X91994Y13946D01*
X92095Y14007D01*
X92195Y14071D01*
X92292Y14138D01*
X92387Y14208D01*
X92479Y14282D01*
X92570Y14358D01*
X92657Y14438D01*
X92742Y14520D01*
X92824Y14605D01*
X92904Y14692D01*
X92980Y14783D01*
X93054Y14875D01*
X93124Y14970D01*
X93191Y15067D01*
X93255Y15167D01*
X93316Y15268D01*
X93373Y15371D01*
X93428Y15476D01*
X93478Y15583D01*
X93525Y15692D01*
X93568Y15802D01*
X93608Y15913D01*
X93644Y16025D01*
X93677Y16139D01*
X93706Y16254D01*
X93731Y16369D01*
X93752Y16486D01*
X93769Y16603D01*
X93783Y16720D01*
X93792Y16838D01*
X93798Y16956D01*
X93800Y17074D01*
X93801Y17074D02*
X93801Y18881D01*
X93800Y18881D02*
X93798Y18999D01*
X93792Y19117D01*
X93783Y19235D01*
X93769Y19352D01*
X93752Y19469D01*
X93731Y19586D01*
X93706Y19701D01*
X93677Y19816D01*
X93644Y19930D01*
X93608Y20042D01*
X93568Y20153D01*
X93525Y20263D01*
X93478Y20372D01*
X93428Y20479D01*
X93373Y20584D01*
X93316Y20687D01*
X93255Y20788D01*
X93191Y20888D01*
X93124Y20985D01*
X93054Y21080D01*
X92980Y21172D01*
X92904Y21263D01*
X92824Y21350D01*
X92742Y21435D01*
X92657Y21517D01*
X92570Y21597D01*
X92479Y21673D01*
X92387Y21747D01*
X92292Y21817D01*
X92195Y21884D01*
X92095Y21948D01*
X91994Y22009D01*
X91891Y22066D01*
X91786Y22121D01*
X91679Y22171D01*
X91570Y22218D01*
X91460Y22261D01*
X91349Y22301D01*
X91237Y22337D01*
X91123Y22370D01*
X91008Y22399D01*
X90893Y22424D01*
X90776Y22445D01*
X90659Y22462D01*
X90542Y22476D01*
X90424Y22485D01*
X90306Y22491D01*
X90188Y22493D01*
X84770Y22493D01*
X84770Y29718D01*
X93801Y29718D01*
X165862Y19784D02*
X176699Y19784D01*
X183438Y26106D02*
X187954Y29718D01*
X187954Y13462D01*
X183438Y13462D02*
X192470Y13462D01*
X199070Y13462D02*
X204488Y13462D01*
X204606Y13464D01*
X204724Y13470D01*
X204842Y13479D01*
X204959Y13493D01*
X205076Y13510D01*
X205193Y13531D01*
X205308Y13556D01*
X205423Y13585D01*
X205537Y13618D01*
X205649Y13654D01*
X205760Y13694D01*
X205870Y13737D01*
X205979Y13784D01*
X206086Y13834D01*
X206191Y13889D01*
X206294Y13946D01*
X206395Y14007D01*
X206495Y14071D01*
X206592Y14138D01*
X206687Y14208D01*
X206779Y14282D01*
X206870Y14358D01*
X206957Y14438D01*
X207042Y14520D01*
X207124Y14605D01*
X207204Y14692D01*
X207280Y14783D01*
X207354Y14875D01*
X207424Y14970D01*
X207491Y15067D01*
X207555Y15167D01*
X207616Y15268D01*
X207673Y15371D01*
X207728Y15476D01*
X207778Y15583D01*
X207825Y15692D01*
X207868Y15802D01*
X207908Y15913D01*
X207944Y16025D01*
X207977Y16139D01*
X208006Y16254D01*
X208031Y16369D01*
X208052Y16486D01*
X208069Y16603D01*
X208083Y16720D01*
X208092Y16838D01*
X208098Y16956D01*
X208100Y17074D01*
X208101Y17074D02*
X208101Y18881D01*
X208100Y18881D02*
X208098Y18999D01*
X208092Y19117D01*
X208083Y19235D01*
X208069Y19352D01*
X208052Y19469D01*
X208031Y19586D01*
X208006Y19701D01*
X207977Y19816D01*
X207944Y19930D01*
X207908Y20042D01*
X207868Y20153D01*
X207825Y20263D01*
X207778Y20372D01*
X207728Y20479D01*
X207673Y20584D01*
X207616Y20687D01*
X207555Y20788D01*
X207491Y20888D01*
X207424Y20985D01*
X207354Y21080D01*
X207280Y21172D01*
X207204Y21263D01*
X207124Y21350D01*
X207042Y21435D01*
X206957Y21517D01*
X206870Y21597D01*
X206779Y21673D01*
X206687Y21747D01*
X206592Y21817D01*
X206495Y21884D01*
X206395Y21948D01*
X206294Y22009D01*
X206191Y22066D01*
X206086Y22121D01*
X205979Y22171D01*
X205870Y22218D01*
X205760Y22261D01*
X205649Y22301D01*
X205537Y22337D01*
X205423Y22370D01*
X205308Y22399D01*
X205193Y22424D01*
X205076Y22445D01*
X204959Y22462D01*
X204842Y22476D01*
X204724Y22485D01*
X204606Y22491D01*
X204488Y22493D01*
X199070Y22493D01*
X199070Y29718D01*
X208101Y29718D01*
X109587Y13462D02*
X105974Y13462D01*
X105856Y13464D01*
X105738Y13470D01*
X105620Y13479D01*
X105503Y13493D01*
X105386Y13510D01*
X105269Y13531D01*
X105154Y13556D01*
X105039Y13585D01*
X104925Y13618D01*
X104813Y13654D01*
X104702Y13694D01*
X104592Y13737D01*
X104483Y13784D01*
X104376Y13834D01*
X104271Y13889D01*
X104168Y13946D01*
X104067Y14007D01*
X103967Y14071D01*
X103870Y14138D01*
X103775Y14208D01*
X103683Y14282D01*
X103592Y14358D01*
X103505Y14438D01*
X103420Y14520D01*
X103338Y14605D01*
X103258Y14692D01*
X103182Y14783D01*
X103108Y14875D01*
X103038Y14970D01*
X102971Y15067D01*
X102907Y15167D01*
X102846Y15268D01*
X102789Y15371D01*
X102734Y15476D01*
X102684Y15583D01*
X102637Y15692D01*
X102594Y15802D01*
X102554Y15913D01*
X102518Y16025D01*
X102485Y16139D01*
X102456Y16254D01*
X102431Y16369D01*
X102410Y16486D01*
X102393Y16603D01*
X102379Y16720D01*
X102370Y16838D01*
X102364Y16956D01*
X102362Y17074D01*
X102362Y26106D01*
X102364Y26224D01*
X102370Y26342D01*
X102379Y26460D01*
X102393Y26577D01*
X102410Y26694D01*
X102431Y26811D01*
X102456Y26926D01*
X102485Y27041D01*
X102518Y27155D01*
X102554Y27267D01*
X102594Y27378D01*
X102637Y27488D01*
X102684Y27597D01*
X102734Y27704D01*
X102788Y27809D01*
X102846Y27912D01*
X102907Y28013D01*
X102971Y28113D01*
X103038Y28210D01*
X103108Y28305D01*
X103182Y28397D01*
X103258Y28488D01*
X103338Y28575D01*
X103420Y28660D01*
X103505Y28742D01*
X103592Y28822D01*
X103683Y28898D01*
X103775Y28972D01*
X103870Y29042D01*
X103967Y29109D01*
X104067Y29173D01*
X104168Y29234D01*
X104271Y29291D01*
X104376Y29345D01*
X104483Y29396D01*
X104592Y29443D01*
X104702Y29486D01*
X104813Y29526D01*
X104925Y29562D01*
X105039Y29595D01*
X105154Y29624D01*
X105269Y29649D01*
X105386Y29670D01*
X105503Y29687D01*
X105620Y29701D01*
X105738Y29710D01*
X105856Y29716D01*
X105974Y29718D01*
X109587Y29718D01*
X114767Y11656D02*
X121992Y11656D01*
X134775Y22493D02*
X137485Y22493D01*
X137485Y13462D01*
X132066Y13462D01*
X131948Y13464D01*
X131830Y13470D01*
X131712Y13479D01*
X131595Y13493D01*
X131478Y13510D01*
X131361Y13531D01*
X131246Y13556D01*
X131131Y13585D01*
X131017Y13618D01*
X130905Y13654D01*
X130794Y13694D01*
X130684Y13737D01*
X130575Y13784D01*
X130468Y13834D01*
X130363Y13889D01*
X130260Y13946D01*
X130159Y14007D01*
X130059Y14071D01*
X129962Y14138D01*
X129867Y14208D01*
X129775Y14282D01*
X129684Y14358D01*
X129597Y14438D01*
X129512Y14520D01*
X129430Y14605D01*
X129350Y14692D01*
X129274Y14783D01*
X129200Y14875D01*
X129130Y14970D01*
X129063Y15067D01*
X128999Y15167D01*
X128938Y15268D01*
X128881Y15371D01*
X128826Y15476D01*
X128776Y15583D01*
X128729Y15692D01*
X128686Y15802D01*
X128646Y15913D01*
X128610Y16025D01*
X128577Y16139D01*
X128548Y16254D01*
X128523Y16369D01*
X128502Y16486D01*
X128485Y16603D01*
X128471Y16720D01*
X128462Y16838D01*
X128456Y16956D01*
X128454Y17074D01*
X128454Y26106D01*
X128456Y26224D01*
X128462Y26342D01*
X128471Y26460D01*
X128485Y26577D01*
X128502Y26694D01*
X128523Y26811D01*
X128548Y26926D01*
X128577Y27041D01*
X128610Y27155D01*
X128646Y27267D01*
X128686Y27378D01*
X128729Y27488D01*
X128776Y27597D01*
X128826Y27704D01*
X128881Y27809D01*
X128938Y27912D01*
X128999Y28013D01*
X129063Y28113D01*
X129130Y28210D01*
X129200Y28305D01*
X129274Y28397D01*
X129350Y28488D01*
X129430Y28575D01*
X129512Y28660D01*
X129597Y28742D01*
X129684Y28822D01*
X129775Y28898D01*
X129867Y28972D01*
X129962Y29042D01*
X130059Y29109D01*
X130159Y29173D01*
X130260Y29234D01*
X130363Y29291D01*
X130468Y29346D01*
X130575Y29396D01*
X130684Y29443D01*
X130794Y29486D01*
X130905Y29526D01*
X131017Y29562D01*
X131131Y29595D01*
X131246Y29624D01*
X131361Y29649D01*
X131478Y29670D01*
X131595Y29687D01*
X131712Y29701D01*
X131830Y29710D01*
X131948Y29716D01*
X132066Y29718D01*
X137485Y29718D01*
X385374Y13462D02*
X388987Y13462D01*
X385374Y13462D02*
X385256Y13464D01*
X385138Y13470D01*
X385020Y13479D01*
X384903Y13493D01*
X384786Y13510D01*
X384669Y13531D01*
X384554Y13556D01*
X384439Y13585D01*
X384325Y13618D01*
X384213Y13654D01*
X384102Y13694D01*
X383992Y13737D01*
X383883Y13784D01*
X383776Y13834D01*
X383671Y13889D01*
X383568Y13946D01*
X383467Y14007D01*
X383367Y14071D01*
X383270Y14138D01*
X383175Y14208D01*
X383083Y14282D01*
X382992Y14358D01*
X382905Y14438D01*
X382820Y14520D01*
X382738Y14605D01*
X382658Y14692D01*
X382582Y14783D01*
X382508Y14875D01*
X382438Y14970D01*
X382371Y15067D01*
X382307Y15167D01*
X382246Y15268D01*
X382189Y15371D01*
X382134Y15476D01*
X382084Y15583D01*
X382037Y15692D01*
X381994Y15802D01*
X381954Y15913D01*
X381918Y16025D01*
X381885Y16139D01*
X381856Y16254D01*
X381831Y16369D01*
X381810Y16486D01*
X381793Y16603D01*
X381779Y16720D01*
X381770Y16838D01*
X381764Y16956D01*
X381762Y17074D01*
X381762Y26106D01*
X381764Y26224D01*
X381770Y26342D01*
X381779Y26460D01*
X381793Y26577D01*
X381810Y26694D01*
X381831Y26811D01*
X381856Y26926D01*
X381885Y27041D01*
X381918Y27155D01*
X381954Y27267D01*
X381994Y27378D01*
X382037Y27488D01*
X382084Y27597D01*
X382134Y27704D01*
X382188Y27809D01*
X382246Y27912D01*
X382307Y28013D01*
X382371Y28113D01*
X382438Y28210D01*
X382508Y28305D01*
X382582Y28397D01*
X382658Y28488D01*
X382738Y28575D01*
X382820Y28660D01*
X382905Y28742D01*
X382992Y28822D01*
X383083Y28898D01*
X383175Y28972D01*
X383270Y29042D01*
X383367Y29109D01*
X383467Y29173D01*
X383568Y29234D01*
X383671Y29291D01*
X383776Y29345D01*
X383883Y29396D01*
X383992Y29443D01*
X384102Y29486D01*
X384213Y29526D01*
X384325Y29562D01*
X384439Y29595D01*
X384554Y29624D01*
X384669Y29649D01*
X384786Y29670D01*
X384903Y29687D01*
X385020Y29701D01*
X385138Y29710D01*
X385256Y29716D01*
X385374Y29718D01*
X388987Y29718D01*
X394167Y11656D02*
X401392Y11656D01*
X414175Y22493D02*
X416885Y22493D01*
X416885Y13462D01*
X411466Y13462D01*
X411348Y13464D01*
X411230Y13470D01*
X411112Y13479D01*
X410995Y13493D01*
X410878Y13510D01*
X410761Y13531D01*
X410646Y13556D01*
X410531Y13585D01*
X410417Y13618D01*
X410305Y13654D01*
X410194Y13694D01*
X410084Y13737D01*
X409975Y13784D01*
X409868Y13834D01*
X409763Y13889D01*
X409660Y13946D01*
X409559Y14007D01*
X409459Y14071D01*
X409362Y14138D01*
X409267Y14208D01*
X409175Y14282D01*
X409084Y14358D01*
X408997Y14438D01*
X408912Y14520D01*
X408830Y14605D01*
X408750Y14692D01*
X408674Y14783D01*
X408600Y14875D01*
X408530Y14970D01*
X408463Y15067D01*
X408399Y15167D01*
X408338Y15268D01*
X408281Y15371D01*
X408226Y15476D01*
X408176Y15583D01*
X408129Y15692D01*
X408086Y15802D01*
X408046Y15913D01*
X408010Y16025D01*
X407977Y16139D01*
X407948Y16254D01*
X407923Y16369D01*
X407902Y16486D01*
X407885Y16603D01*
X407871Y16720D01*
X407862Y16838D01*
X407856Y16956D01*
X407854Y17074D01*
X407854Y26106D01*
X407856Y26224D01*
X407862Y26342D01*
X407871Y26460D01*
X407885Y26577D01*
X407902Y26694D01*
X407923Y26811D01*
X407948Y26926D01*
X407977Y27041D01*
X408010Y27155D01*
X408046Y27267D01*
X408086Y27378D01*
X408129Y27488D01*
X408176Y27597D01*
X408226Y27704D01*
X408280Y27809D01*
X408338Y27912D01*
X408399Y28013D01*
X408463Y28113D01*
X408530Y28210D01*
X408600Y28305D01*
X408674Y28397D01*
X408750Y28488D01*
X408830Y28575D01*
X408912Y28660D01*
X408997Y28742D01*
X409084Y28822D01*
X409175Y28898D01*
X409267Y28972D01*
X409362Y29042D01*
X409459Y29109D01*
X409559Y29173D01*
X409660Y29234D01*
X409763Y29291D01*
X409868Y29345D01*
X409975Y29396D01*
X410084Y29443D01*
X410194Y29486D01*
X410305Y29526D01*
X410417Y29562D01*
X410531Y29595D01*
X410646Y29624D01*
X410761Y29649D01*
X410878Y29670D01*
X410995Y29687D01*
X411112Y29701D01*
X411230Y29710D01*
X411348Y29716D01*
X411466Y29718D01*
X416885Y29718D01*
X263793Y22493D02*
X261084Y22493D01*
X263793Y22493D02*
X263793Y13462D01*
X258374Y13462D01*
X258256Y13464D01*
X258138Y13470D01*
X258020Y13479D01*
X257903Y13493D01*
X257786Y13510D01*
X257669Y13531D01*
X257554Y13556D01*
X257439Y13585D01*
X257325Y13618D01*
X257213Y13654D01*
X257102Y13694D01*
X256992Y13737D01*
X256883Y13784D01*
X256776Y13834D01*
X256671Y13889D01*
X256568Y13946D01*
X256467Y14007D01*
X256367Y14071D01*
X256270Y14138D01*
X256175Y14208D01*
X256083Y14282D01*
X255992Y14358D01*
X255905Y14438D01*
X255820Y14520D01*
X255738Y14605D01*
X255658Y14692D01*
X255582Y14783D01*
X255508Y14875D01*
X255438Y14970D01*
X255371Y15067D01*
X255307Y15167D01*
X255246Y15268D01*
X255189Y15371D01*
X255134Y15476D01*
X255084Y15583D01*
X255037Y15692D01*
X254994Y15802D01*
X254954Y15913D01*
X254918Y16025D01*
X254885Y16139D01*
X254856Y16254D01*
X254831Y16369D01*
X254810Y16486D01*
X254793Y16603D01*
X254779Y16720D01*
X254770Y16838D01*
X254764Y16956D01*
X254762Y17074D01*
X254762Y26106D01*
X254764Y26224D01*
X254770Y26342D01*
X254779Y26460D01*
X254793Y26577D01*
X254810Y26694D01*
X254831Y26811D01*
X254856Y26926D01*
X254885Y27041D01*
X254918Y27155D01*
X254954Y27267D01*
X254994Y27378D01*
X255037Y27488D01*
X255084Y27597D01*
X255134Y27704D01*
X255188Y27809D01*
X255246Y27912D01*
X255307Y28013D01*
X255371Y28113D01*
X255438Y28210D01*
X255508Y28305D01*
X255582Y28397D01*
X255658Y28488D01*
X255738Y28575D01*
X255820Y28660D01*
X255905Y28742D01*
X255992Y28822D01*
X256083Y28898D01*
X256175Y28972D01*
X256270Y29042D01*
X256367Y29109D01*
X256467Y29173D01*
X256568Y29234D01*
X256671Y29291D01*
X256776Y29345D01*
X256883Y29396D01*
X256992Y29443D01*
X257102Y29486D01*
X257213Y29526D01*
X257325Y29562D01*
X257439Y29595D01*
X257554Y29624D01*
X257669Y29649D01*
X257786Y29670D01*
X257903Y29687D01*
X258020Y29701D01*
X258138Y29710D01*
X258256Y29716D01*
X258374Y29718D01*
X263793Y29718D01*
X270254Y11656D02*
X277479Y11656D01*
X290262Y22493D02*
X292971Y22493D01*
X292971Y13462D01*
X287553Y13462D01*
X287435Y13464D01*
X287317Y13470D01*
X287199Y13479D01*
X287082Y13493D01*
X286965Y13510D01*
X286848Y13531D01*
X286733Y13556D01*
X286618Y13585D01*
X286504Y13618D01*
X286392Y13654D01*
X286281Y13694D01*
X286171Y13737D01*
X286062Y13784D01*
X285955Y13834D01*
X285850Y13889D01*
X285747Y13946D01*
X285646Y14007D01*
X285546Y14071D01*
X285449Y14138D01*
X285354Y14208D01*
X285262Y14282D01*
X285171Y14358D01*
X285084Y14438D01*
X284999Y14520D01*
X284917Y14605D01*
X284837Y14692D01*
X284761Y14783D01*
X284687Y14875D01*
X284617Y14970D01*
X284550Y15067D01*
X284486Y15167D01*
X284425Y15268D01*
X284368Y15371D01*
X284313Y15476D01*
X284263Y15583D01*
X284216Y15692D01*
X284173Y15802D01*
X284133Y15913D01*
X284097Y16025D01*
X284064Y16139D01*
X284035Y16254D01*
X284010Y16369D01*
X283989Y16486D01*
X283972Y16603D01*
X283958Y16720D01*
X283949Y16838D01*
X283943Y16956D01*
X283941Y17074D01*
X283940Y17074D02*
X283940Y26106D01*
X283941Y26106D02*
X283943Y26224D01*
X283949Y26342D01*
X283958Y26460D01*
X283972Y26577D01*
X283989Y26694D01*
X284010Y26811D01*
X284035Y26926D01*
X284064Y27041D01*
X284097Y27155D01*
X284133Y27267D01*
X284173Y27378D01*
X284216Y27488D01*
X284263Y27597D01*
X284313Y27704D01*
X284367Y27809D01*
X284425Y27912D01*
X284486Y28013D01*
X284550Y28113D01*
X284617Y28210D01*
X284687Y28305D01*
X284761Y28397D01*
X284837Y28488D01*
X284917Y28575D01*
X284999Y28660D01*
X285084Y28742D01*
X285171Y28822D01*
X285262Y28898D01*
X285354Y28972D01*
X285449Y29042D01*
X285546Y29109D01*
X285646Y29173D01*
X285747Y29234D01*
X285850Y29291D01*
X285955Y29345D01*
X286062Y29396D01*
X286171Y29443D01*
X286281Y29486D01*
X286392Y29526D01*
X286504Y29562D01*
X286618Y29595D01*
X286733Y29624D01*
X286848Y29649D01*
X286965Y29670D01*
X287082Y29687D01*
X287199Y29701D01*
X287317Y29710D01*
X287435Y29716D01*
X287553Y29718D01*
X292971Y29718D01*
X227499Y19784D02*
X216662Y19784D01*
X222081Y25202D02*
X222081Y14365D01*
X234238Y13462D02*
X239657Y13462D01*
X239775Y13464D01*
X239893Y13470D01*
X240011Y13479D01*
X240128Y13493D01*
X240245Y13510D01*
X240362Y13531D01*
X240477Y13556D01*
X240592Y13585D01*
X240706Y13618D01*
X240818Y13654D01*
X240929Y13694D01*
X241039Y13737D01*
X241148Y13784D01*
X241255Y13834D01*
X241360Y13889D01*
X241463Y13946D01*
X241564Y14007D01*
X241664Y14071D01*
X241761Y14138D01*
X241856Y14208D01*
X241948Y14282D01*
X242039Y14358D01*
X242126Y14438D01*
X242211Y14520D01*
X242293Y14605D01*
X242373Y14692D01*
X242449Y14783D01*
X242523Y14875D01*
X242593Y14970D01*
X242660Y15067D01*
X242724Y15167D01*
X242785Y15268D01*
X242842Y15371D01*
X242897Y15476D01*
X242947Y15583D01*
X242994Y15692D01*
X243037Y15802D01*
X243077Y15913D01*
X243113Y16025D01*
X243146Y16139D01*
X243175Y16254D01*
X243200Y16369D01*
X243221Y16486D01*
X243238Y16603D01*
X243252Y16720D01*
X243261Y16838D01*
X243267Y16956D01*
X243269Y17074D01*
X243270Y17074D02*
X243270Y18881D01*
X243269Y18881D02*
X243267Y18999D01*
X243261Y19117D01*
X243252Y19235D01*
X243238Y19352D01*
X243221Y19469D01*
X243200Y19586D01*
X243175Y19701D01*
X243146Y19816D01*
X243113Y19930D01*
X243077Y20042D01*
X243037Y20153D01*
X242994Y20263D01*
X242947Y20372D01*
X242897Y20479D01*
X242842Y20584D01*
X242785Y20687D01*
X242724Y20788D01*
X242660Y20888D01*
X242593Y20985D01*
X242523Y21080D01*
X242449Y21172D01*
X242373Y21263D01*
X242293Y21350D01*
X242211Y21435D01*
X242126Y21517D01*
X242039Y21597D01*
X241948Y21673D01*
X241856Y21747D01*
X241761Y21817D01*
X241664Y21884D01*
X241564Y21948D01*
X241463Y22009D01*
X241360Y22066D01*
X241255Y22121D01*
X241148Y22171D01*
X241039Y22218D01*
X240929Y22261D01*
X240818Y22301D01*
X240706Y22337D01*
X240592Y22370D01*
X240477Y22399D01*
X240362Y22424D01*
X240245Y22445D01*
X240128Y22462D01*
X240011Y22476D01*
X239893Y22485D01*
X239775Y22491D01*
X239657Y22493D01*
X234238Y22493D01*
X234238Y29718D01*
X243270Y29718D01*
X318262Y29718D02*
X323681Y13462D01*
X329099Y29718D01*
X334136Y11656D02*
X341361Y11656D01*
X347914Y13462D02*
X347914Y29718D01*
X352429Y29718D01*
X352562Y29716D01*
X352694Y29710D01*
X352826Y29700D01*
X352958Y29687D01*
X353090Y29669D01*
X353220Y29648D01*
X353351Y29623D01*
X353480Y29594D01*
X353608Y29561D01*
X353736Y29525D01*
X353862Y29485D01*
X353987Y29441D01*
X354111Y29393D01*
X354233Y29342D01*
X354354Y29287D01*
X354473Y29229D01*
X354591Y29167D01*
X354706Y29102D01*
X354820Y29033D01*
X354931Y28962D01*
X355040Y28886D01*
X355147Y28808D01*
X355252Y28727D01*
X355354Y28642D01*
X355454Y28555D01*
X355551Y28465D01*
X355646Y28372D01*
X355737Y28276D01*
X355826Y28178D01*
X355912Y28077D01*
X355995Y27973D01*
X356075Y27867D01*
X356151Y27759D01*
X356225Y27649D01*
X356295Y27536D01*
X356362Y27422D01*
X356425Y27305D01*
X356485Y27187D01*
X356542Y27067D01*
X356595Y26945D01*
X356644Y26822D01*
X356690Y26698D01*
X356732Y26572D01*
X356770Y26445D01*
X356805Y26317D01*
X356836Y26188D01*
X356863Y26059D01*
X356886Y25928D01*
X356906Y25797D01*
X356921Y25665D01*
X356933Y25533D01*
X356941Y25401D01*
X356945Y25268D01*
X356945Y25136D01*
X356941Y25003D01*
X356933Y24871D01*
X356921Y24739D01*
X356906Y24607D01*
X356886Y24476D01*
X356863Y24345D01*
X356836Y24216D01*
X356805Y24087D01*
X356770Y23959D01*
X356732Y23832D01*
X356690Y23706D01*
X356644Y23582D01*
X356595Y23459D01*
X356542Y23337D01*
X356485Y23217D01*
X356425Y23099D01*
X356362Y22982D01*
X356295Y22868D01*
X356225Y22755D01*
X356151Y22645D01*
X356075Y22537D01*
X355995Y22431D01*
X355912Y22327D01*
X355826Y22226D01*
X355737Y22128D01*
X355646Y22032D01*
X355551Y21939D01*
X355454Y21849D01*
X355354Y21762D01*
X355252Y21677D01*
X355147Y21596D01*
X355040Y21518D01*
X354931Y21442D01*
X354820Y21371D01*
X354706Y21302D01*
X354591Y21237D01*
X354473Y21175D01*
X354354Y21117D01*
X354233Y21062D01*
X354111Y21011D01*
X353987Y20963D01*
X353862Y20919D01*
X353736Y20879D01*
X353608Y20843D01*
X353480Y20810D01*
X353351Y20781D01*
X353220Y20756D01*
X353090Y20735D01*
X352958Y20717D01*
X352826Y20704D01*
X352694Y20694D01*
X352562Y20688D01*
X352429Y20686D01*
X352429Y20687D02*
X347914Y20687D01*
X353333Y20687D02*
X356945Y13462D01*
X414782Y624868D02*
X431038Y624868D01*
X431038Y623062D02*
X431038Y626674D01*
X414782Y626674D02*
X414782Y623062D01*
X414782Y633379D02*
X431038Y633379D01*
X431038Y642410D02*
X414782Y633379D01*
X414782Y642410D02*
X431038Y642410D01*
X431038Y650263D02*
X414782Y650263D01*
X414782Y654779D01*
X414784Y654912D01*
X414790Y655044D01*
X414800Y655176D01*
X414813Y655308D01*
X414831Y655440D01*
X414852Y655570D01*
X414877Y655701D01*
X414906Y655830D01*
X414939Y655958D01*
X414975Y656086D01*
X415015Y656212D01*
X415059Y656337D01*
X415107Y656461D01*
X415158Y656583D01*
X415213Y656704D01*
X415271Y656823D01*
X415333Y656941D01*
X415398Y657056D01*
X415467Y657170D01*
X415538Y657281D01*
X415614Y657390D01*
X415692Y657497D01*
X415773Y657602D01*
X415858Y657704D01*
X415945Y657804D01*
X416035Y657901D01*
X416128Y657996D01*
X416224Y658087D01*
X416322Y658176D01*
X416423Y658262D01*
X416527Y658345D01*
X416633Y658425D01*
X416741Y658501D01*
X416851Y658575D01*
X416964Y658645D01*
X417078Y658712D01*
X417195Y658775D01*
X417313Y658835D01*
X417433Y658892D01*
X417555Y658945D01*
X417678Y658994D01*
X417802Y659040D01*
X417928Y659082D01*
X418055Y659120D01*
X418183Y659155D01*
X418312Y659186D01*
X418441Y659213D01*
X418572Y659236D01*
X418703Y659256D01*
X418835Y659271D01*
X418967Y659283D01*
X419099Y659291D01*
X419232Y659295D01*
X419364Y659295D01*
X419497Y659291D01*
X419629Y659283D01*
X419761Y659271D01*
X419893Y659256D01*
X420024Y659236D01*
X420155Y659213D01*
X420284Y659186D01*
X420413Y659155D01*
X420541Y659120D01*
X420668Y659082D01*
X420794Y659040D01*
X420918Y658994D01*
X421041Y658945D01*
X421163Y658892D01*
X421283Y658835D01*
X421401Y658775D01*
X421518Y658712D01*
X421632Y658645D01*
X421745Y658575D01*
X421855Y658501D01*
X421963Y658425D01*
X422069Y658345D01*
X422173Y658262D01*
X422274Y658176D01*
X422372Y658087D01*
X422468Y657996D01*
X422561Y657901D01*
X422651Y657804D01*
X422738Y657704D01*
X422823Y657602D01*
X422904Y657497D01*
X422982Y657390D01*
X423058Y657281D01*
X423129Y657170D01*
X423198Y657056D01*
X423263Y656941D01*
X423325Y656823D01*
X423383Y656704D01*
X423438Y656583D01*
X423489Y656461D01*
X423537Y656337D01*
X423581Y656212D01*
X423621Y656086D01*
X423657Y655958D01*
X423690Y655830D01*
X423719Y655701D01*
X423744Y655570D01*
X423765Y655440D01*
X423783Y655308D01*
X423796Y655176D01*
X423806Y655044D01*
X423812Y654912D01*
X423814Y654779D01*
X423813Y654779D02*
X423813Y650263D01*
X426522Y665683D02*
X414782Y665683D01*
X426522Y665683D02*
X426655Y665685D01*
X426787Y665691D01*
X426919Y665701D01*
X427051Y665714D01*
X427183Y665732D01*
X427313Y665753D01*
X427444Y665778D01*
X427573Y665807D01*
X427701Y665840D01*
X427829Y665876D01*
X427955Y665916D01*
X428080Y665960D01*
X428204Y666008D01*
X428326Y666059D01*
X428447Y666114D01*
X428566Y666172D01*
X428684Y666234D01*
X428799Y666299D01*
X428913Y666368D01*
X429024Y666439D01*
X429133Y666515D01*
X429240Y666593D01*
X429345Y666674D01*
X429447Y666759D01*
X429547Y666846D01*
X429644Y666936D01*
X429739Y667029D01*
X429830Y667125D01*
X429919Y667223D01*
X430005Y667324D01*
X430088Y667428D01*
X430168Y667534D01*
X430244Y667642D01*
X430318Y667752D01*
X430388Y667865D01*
X430455Y667979D01*
X430518Y668096D01*
X430578Y668214D01*
X430635Y668334D01*
X430688Y668456D01*
X430737Y668579D01*
X430783Y668703D01*
X430825Y668829D01*
X430863Y668956D01*
X430898Y669084D01*
X430929Y669213D01*
X430956Y669342D01*
X430979Y669473D01*
X430999Y669604D01*
X431014Y669736D01*
X431026Y669868D01*
X431034Y670000D01*
X431038Y670133D01*
X431038Y670265D01*
X431034Y670398D01*
X431026Y670530D01*
X431014Y670662D01*
X430999Y670794D01*
X430979Y670925D01*
X430956Y671056D01*
X430929Y671185D01*
X430898Y671314D01*
X430863Y671442D01*
X430825Y671569D01*
X430783Y671695D01*
X430737Y671819D01*
X430688Y671942D01*
X430635Y672064D01*
X430578Y672184D01*
X430518Y672302D01*
X430455Y672419D01*
X430388Y672533D01*
X430318Y672646D01*
X430244Y672756D01*
X430168Y672864D01*
X430088Y672970D01*
X430005Y673074D01*
X429919Y673175D01*
X429830Y673273D01*
X429739Y673369D01*
X429644Y673462D01*
X429547Y673552D01*
X429447Y673639D01*
X429345Y673724D01*
X429240Y673805D01*
X429133Y673883D01*
X429024Y673959D01*
X428913Y674030D01*
X428799Y674099D01*
X428684Y674164D01*
X428566Y674226D01*
X428447Y674284D01*
X428326Y674339D01*
X428204Y674390D01*
X428080Y674438D01*
X427955Y674482D01*
X427829Y674522D01*
X427701Y674558D01*
X427573Y674591D01*
X427444Y674620D01*
X427313Y674645D01*
X427183Y674666D01*
X427051Y674684D01*
X426919Y674697D01*
X426787Y674707D01*
X426655Y674713D01*
X426522Y674715D01*
X426522Y674714D02*
X414782Y674714D01*
X414782Y685309D02*
X431038Y685309D01*
X414782Y680794D02*
X414782Y689825D01*
X649693Y286822D02*
X649693Y279598D01*
X649692Y286822D02*
X649694Y286955D01*
X649700Y287087D01*
X649710Y287219D01*
X649723Y287351D01*
X649741Y287483D01*
X649762Y287613D01*
X649787Y287744D01*
X649816Y287873D01*
X649849Y288001D01*
X649885Y288129D01*
X649925Y288255D01*
X649969Y288380D01*
X650017Y288504D01*
X650068Y288626D01*
X650123Y288747D01*
X650181Y288866D01*
X650243Y288984D01*
X650308Y289099D01*
X650377Y289213D01*
X650448Y289324D01*
X650524Y289433D01*
X650602Y289540D01*
X650683Y289645D01*
X650768Y289747D01*
X650855Y289847D01*
X650945Y289944D01*
X651038Y290039D01*
X651134Y290130D01*
X651232Y290219D01*
X651333Y290305D01*
X651437Y290388D01*
X651543Y290468D01*
X651651Y290544D01*
X651761Y290618D01*
X651874Y290688D01*
X651988Y290755D01*
X652105Y290818D01*
X652223Y290878D01*
X652343Y290935D01*
X652465Y290988D01*
X652588Y291037D01*
X652712Y291083D01*
X652838Y291125D01*
X652965Y291163D01*
X653093Y291198D01*
X653222Y291229D01*
X653351Y291256D01*
X653482Y291279D01*
X653613Y291299D01*
X653745Y291314D01*
X653877Y291326D01*
X654009Y291334D01*
X654142Y291338D01*
X654274Y291338D01*
X654407Y291334D01*
X654539Y291326D01*
X654671Y291314D01*
X654803Y291299D01*
X654934Y291279D01*
X655065Y291256D01*
X655194Y291229D01*
X655323Y291198D01*
X655451Y291163D01*
X655578Y291125D01*
X655704Y291083D01*
X655828Y291037D01*
X655951Y290988D01*
X656073Y290935D01*
X656193Y290878D01*
X656311Y290818D01*
X656428Y290755D01*
X656542Y290688D01*
X656655Y290618D01*
X656765Y290544D01*
X656873Y290468D01*
X656979Y290388D01*
X657083Y290305D01*
X657184Y290219D01*
X657282Y290130D01*
X657378Y290039D01*
X657471Y289944D01*
X657561Y289847D01*
X657648Y289747D01*
X657733Y289645D01*
X657814Y289540D01*
X657892Y289433D01*
X657968Y289324D01*
X658039Y289213D01*
X658108Y289099D01*
X658173Y288984D01*
X658235Y288866D01*
X658293Y288747D01*
X658348Y288626D01*
X658399Y288504D01*
X658447Y288380D01*
X658491Y288255D01*
X658531Y288129D01*
X658567Y288001D01*
X658600Y287873D01*
X658629Y287744D01*
X658654Y287613D01*
X658675Y287483D01*
X658693Y287351D01*
X658706Y287219D01*
X658716Y287087D01*
X658722Y286955D01*
X658724Y286822D01*
X658724Y279598D01*
X658722Y279465D01*
X658716Y279333D01*
X658706Y279201D01*
X658693Y279069D01*
X658675Y278937D01*
X658654Y278807D01*
X658629Y278676D01*
X658600Y278547D01*
X658567Y278419D01*
X658531Y278291D01*
X658491Y278165D01*
X658447Y278040D01*
X658399Y277916D01*
X658348Y277794D01*
X658293Y277673D01*
X658235Y277554D01*
X658173Y277436D01*
X658108Y277321D01*
X658039Y277207D01*
X657968Y277096D01*
X657892Y276987D01*
X657814Y276880D01*
X657733Y276775D01*
X657648Y276673D01*
X657561Y276573D01*
X657471Y276476D01*
X657378Y276381D01*
X657282Y276290D01*
X657184Y276201D01*
X657083Y276115D01*
X656979Y276032D01*
X656873Y275952D01*
X656765Y275876D01*
X656655Y275802D01*
X656542Y275732D01*
X656428Y275665D01*
X656311Y275602D01*
X656193Y275542D01*
X656073Y275485D01*
X655951Y275432D01*
X655828Y275383D01*
X655704Y275337D01*
X655578Y275295D01*
X655451Y275257D01*
X655323Y275222D01*
X655194Y275191D01*
X655065Y275164D01*
X654934Y275141D01*
X654803Y275121D01*
X654671Y275106D01*
X654539Y275094D01*
X654407Y275086D01*
X654274Y275082D01*
X654142Y275082D01*
X654009Y275086D01*
X653877Y275094D01*
X653745Y275106D01*
X653613Y275121D01*
X653482Y275141D01*
X653351Y275164D01*
X653222Y275191D01*
X653093Y275222D01*
X652965Y275257D01*
X652838Y275295D01*
X652712Y275337D01*
X652588Y275383D01*
X652465Y275432D01*
X652343Y275485D01*
X652223Y275542D01*
X652105Y275602D01*
X651988Y275665D01*
X651874Y275732D01*
X651761Y275802D01*
X651651Y275876D01*
X651543Y275952D01*
X651437Y276032D01*
X651333Y276115D01*
X651232Y276201D01*
X651134Y276290D01*
X651038Y276381D01*
X650945Y276476D01*
X650855Y276573D01*
X650768Y276673D01*
X650683Y276775D01*
X650602Y276880D01*
X650524Y276987D01*
X650448Y277096D01*
X650377Y277207D01*
X650308Y277321D01*
X650243Y277436D01*
X650181Y277554D01*
X650123Y277673D01*
X650068Y277794D01*
X650017Y277916D01*
X649969Y278040D01*
X649925Y278165D01*
X649885Y278291D01*
X649849Y278419D01*
X649816Y278547D01*
X649787Y278676D01*
X649762Y278807D01*
X649741Y278937D01*
X649723Y279069D01*
X649710Y279201D01*
X649700Y279333D01*
X649694Y279465D01*
X649692Y279598D01*
X665845Y279598D02*
X665845Y291338D01*
X665845Y279598D02*
X665847Y279465D01*
X665853Y279333D01*
X665863Y279201D01*
X665876Y279069D01*
X665894Y278937D01*
X665915Y278807D01*
X665940Y278676D01*
X665969Y278547D01*
X666002Y278419D01*
X666038Y278291D01*
X666078Y278165D01*
X666122Y278040D01*
X666170Y277916D01*
X666221Y277794D01*
X666276Y277673D01*
X666334Y277554D01*
X666396Y277436D01*
X666461Y277321D01*
X666530Y277207D01*
X666601Y277096D01*
X666677Y276987D01*
X666755Y276880D01*
X666836Y276775D01*
X666921Y276673D01*
X667008Y276573D01*
X667098Y276476D01*
X667191Y276381D01*
X667287Y276290D01*
X667385Y276201D01*
X667486Y276115D01*
X667590Y276032D01*
X667696Y275952D01*
X667804Y275876D01*
X667914Y275802D01*
X668027Y275732D01*
X668141Y275665D01*
X668258Y275602D01*
X668376Y275542D01*
X668496Y275485D01*
X668618Y275432D01*
X668741Y275383D01*
X668865Y275337D01*
X668991Y275295D01*
X669118Y275257D01*
X669246Y275222D01*
X669375Y275191D01*
X669504Y275164D01*
X669635Y275141D01*
X669766Y275121D01*
X669898Y275106D01*
X670030Y275094D01*
X670162Y275086D01*
X670295Y275082D01*
X670427Y275082D01*
X670560Y275086D01*
X670692Y275094D01*
X670824Y275106D01*
X670956Y275121D01*
X671087Y275141D01*
X671218Y275164D01*
X671347Y275191D01*
X671476Y275222D01*
X671604Y275257D01*
X671731Y275295D01*
X671857Y275337D01*
X671981Y275383D01*
X672104Y275432D01*
X672226Y275485D01*
X672346Y275542D01*
X672464Y275602D01*
X672581Y275665D01*
X672695Y275732D01*
X672808Y275802D01*
X672918Y275876D01*
X673026Y275952D01*
X673132Y276032D01*
X673236Y276115D01*
X673337Y276201D01*
X673435Y276290D01*
X673531Y276381D01*
X673624Y276476D01*
X673714Y276573D01*
X673801Y276673D01*
X673886Y276775D01*
X673967Y276880D01*
X674045Y276987D01*
X674121Y277096D01*
X674192Y277207D01*
X674261Y277321D01*
X674326Y277436D01*
X674388Y277554D01*
X674446Y277673D01*
X674501Y277794D01*
X674552Y277916D01*
X674600Y278040D01*
X674644Y278165D01*
X674684Y278291D01*
X674720Y278419D01*
X674753Y278547D01*
X674782Y278676D01*
X674807Y278807D01*
X674828Y278937D01*
X674846Y279069D01*
X674859Y279201D01*
X674869Y279333D01*
X674875Y279465D01*
X674877Y279598D01*
X674876Y279598D02*
X674876Y291338D01*
X685471Y291338D02*
X685471Y275082D01*
X680955Y291338D02*
X689986Y291338D01*
X696276Y291338D02*
X696276Y275082D01*
X696276Y291338D02*
X700792Y291338D01*
X700925Y291336D01*
X701057Y291330D01*
X701189Y291320D01*
X701321Y291307D01*
X701453Y291289D01*
X701583Y291268D01*
X701714Y291243D01*
X701843Y291214D01*
X701971Y291181D01*
X702099Y291145D01*
X702225Y291105D01*
X702350Y291061D01*
X702474Y291013D01*
X702596Y290962D01*
X702717Y290907D01*
X702836Y290849D01*
X702954Y290787D01*
X703069Y290722D01*
X703183Y290653D01*
X703294Y290582D01*
X703403Y290506D01*
X703510Y290428D01*
X703615Y290347D01*
X703717Y290262D01*
X703817Y290175D01*
X703914Y290085D01*
X704009Y289992D01*
X704100Y289896D01*
X704189Y289798D01*
X704275Y289697D01*
X704358Y289593D01*
X704438Y289487D01*
X704514Y289379D01*
X704588Y289269D01*
X704658Y289156D01*
X704725Y289042D01*
X704788Y288925D01*
X704848Y288807D01*
X704905Y288687D01*
X704958Y288565D01*
X705007Y288442D01*
X705053Y288318D01*
X705095Y288192D01*
X705133Y288065D01*
X705168Y287937D01*
X705199Y287808D01*
X705226Y287679D01*
X705249Y287548D01*
X705269Y287417D01*
X705284Y287285D01*
X705296Y287153D01*
X705304Y287021D01*
X705308Y286888D01*
X705308Y286756D01*
X705304Y286623D01*
X705296Y286491D01*
X705284Y286359D01*
X705269Y286227D01*
X705249Y286096D01*
X705226Y285965D01*
X705199Y285836D01*
X705168Y285707D01*
X705133Y285579D01*
X705095Y285452D01*
X705053Y285326D01*
X705007Y285202D01*
X704958Y285079D01*
X704905Y284957D01*
X704848Y284837D01*
X704788Y284719D01*
X704725Y284602D01*
X704658Y284488D01*
X704588Y284375D01*
X704514Y284265D01*
X704438Y284157D01*
X704358Y284051D01*
X704275Y283947D01*
X704189Y283846D01*
X704100Y283748D01*
X704009Y283652D01*
X703914Y283559D01*
X703817Y283469D01*
X703717Y283382D01*
X703615Y283297D01*
X703510Y283216D01*
X703403Y283138D01*
X703294Y283062D01*
X703183Y282991D01*
X703069Y282922D01*
X702954Y282857D01*
X702836Y282795D01*
X702717Y282737D01*
X702596Y282682D01*
X702474Y282631D01*
X702350Y282583D01*
X702225Y282539D01*
X702099Y282499D01*
X701971Y282463D01*
X701843Y282430D01*
X701714Y282401D01*
X701583Y282376D01*
X701453Y282355D01*
X701321Y282337D01*
X701189Y282324D01*
X701057Y282314D01*
X700925Y282308D01*
X700792Y282306D01*
X700792Y282307D02*
X696276Y282307D01*
X711697Y279598D02*
X711697Y291338D01*
X711696Y279598D02*
X711698Y279465D01*
X711704Y279333D01*
X711714Y279201D01*
X711727Y279069D01*
X711745Y278937D01*
X711766Y278807D01*
X711791Y278676D01*
X711820Y278547D01*
X711853Y278419D01*
X711889Y278291D01*
X711929Y278165D01*
X711973Y278040D01*
X712021Y277916D01*
X712072Y277794D01*
X712127Y277673D01*
X712185Y277554D01*
X712247Y277436D01*
X712312Y277321D01*
X712381Y277207D01*
X712452Y277096D01*
X712528Y276987D01*
X712606Y276880D01*
X712687Y276775D01*
X712772Y276673D01*
X712859Y276573D01*
X712949Y276476D01*
X713042Y276381D01*
X713138Y276290D01*
X713236Y276201D01*
X713337Y276115D01*
X713441Y276032D01*
X713547Y275952D01*
X713655Y275876D01*
X713765Y275802D01*
X713878Y275732D01*
X713992Y275665D01*
X714109Y275602D01*
X714227Y275542D01*
X714347Y275485D01*
X714469Y275432D01*
X714592Y275383D01*
X714716Y275337D01*
X714842Y275295D01*
X714969Y275257D01*
X715097Y275222D01*
X715226Y275191D01*
X715355Y275164D01*
X715486Y275141D01*
X715617Y275121D01*
X715749Y275106D01*
X715881Y275094D01*
X716013Y275086D01*
X716146Y275082D01*
X716278Y275082D01*
X716411Y275086D01*
X716543Y275094D01*
X716675Y275106D01*
X716807Y275121D01*
X716938Y275141D01*
X717069Y275164D01*
X717198Y275191D01*
X717327Y275222D01*
X717455Y275257D01*
X717582Y275295D01*
X717708Y275337D01*
X717832Y275383D01*
X717955Y275432D01*
X718077Y275485D01*
X718197Y275542D01*
X718315Y275602D01*
X718432Y275665D01*
X718546Y275732D01*
X718659Y275802D01*
X718769Y275876D01*
X718877Y275952D01*
X718983Y276032D01*
X719087Y276115D01*
X719188Y276201D01*
X719286Y276290D01*
X719382Y276381D01*
X719475Y276476D01*
X719565Y276573D01*
X719652Y276673D01*
X719737Y276775D01*
X719818Y276880D01*
X719896Y276987D01*
X719972Y277096D01*
X720043Y277207D01*
X720112Y277321D01*
X720177Y277436D01*
X720239Y277554D01*
X720297Y277673D01*
X720352Y277794D01*
X720403Y277916D01*
X720451Y278040D01*
X720495Y278165D01*
X720535Y278291D01*
X720571Y278419D01*
X720604Y278547D01*
X720633Y278676D01*
X720658Y278807D01*
X720679Y278937D01*
X720697Y279069D01*
X720710Y279201D01*
X720720Y279333D01*
X720726Y279465D01*
X720728Y279598D01*
X720728Y291338D01*
X731322Y291338D02*
X731322Y275082D01*
X726807Y291338D02*
X735838Y291338D01*
X775462Y299184D02*
X786299Y299184D01*
X780881Y293765D02*
X780881Y304602D01*
X621199Y311884D02*
X610362Y311884D01*
X443399Y603984D02*
X432562Y603984D01*
X430699Y730984D02*
X419862Y730984D01*
X425281Y736402D02*
X425281Y725565D01*
X846582Y650268D02*
X862838Y650268D01*
X862838Y648462D02*
X862838Y652074D01*
X846582Y652074D02*
X846582Y648462D01*
X852001Y658640D02*
X862838Y658640D01*
X852001Y658640D02*
X852001Y663155D01*
X852003Y663259D01*
X852009Y663362D01*
X852019Y663466D01*
X852033Y663569D01*
X852051Y663671D01*
X852072Y663772D01*
X852098Y663873D01*
X852127Y663972D01*
X852160Y664071D01*
X852197Y664168D01*
X852238Y664263D01*
X852282Y664357D01*
X852330Y664449D01*
X852381Y664539D01*
X852436Y664628D01*
X852494Y664714D01*
X852556Y664797D01*
X852620Y664879D01*
X852688Y664957D01*
X852758Y665033D01*
X852831Y665107D01*
X852908Y665177D01*
X852986Y665245D01*
X853068Y665309D01*
X853151Y665371D01*
X853237Y665429D01*
X853326Y665484D01*
X853416Y665535D01*
X853508Y665583D01*
X853602Y665627D01*
X853697Y665668D01*
X853794Y665705D01*
X853893Y665738D01*
X853992Y665767D01*
X854093Y665793D01*
X854194Y665814D01*
X854296Y665832D01*
X854399Y665846D01*
X854503Y665856D01*
X854606Y665862D01*
X854710Y665864D01*
X854710Y665865D02*
X862838Y665865D01*
X862838Y679859D02*
X846582Y679859D01*
X862838Y679859D02*
X862838Y675344D01*
X862836Y675243D01*
X862830Y675142D01*
X862821Y675041D01*
X862808Y674940D01*
X862791Y674840D01*
X862770Y674741D01*
X862746Y674643D01*
X862718Y674546D01*
X862686Y674449D01*
X862651Y674354D01*
X862612Y674261D01*
X862570Y674169D01*
X862524Y674078D01*
X862475Y673990D01*
X862423Y673903D01*
X862367Y673818D01*
X862309Y673735D01*
X862247Y673655D01*
X862182Y673577D01*
X862115Y673501D01*
X862045Y673428D01*
X861972Y673358D01*
X861896Y673291D01*
X861818Y673226D01*
X861738Y673164D01*
X861655Y673106D01*
X861570Y673050D01*
X861484Y672998D01*
X861395Y672949D01*
X861304Y672903D01*
X861212Y672861D01*
X861119Y672822D01*
X861024Y672787D01*
X860927Y672755D01*
X860830Y672727D01*
X860732Y672703D01*
X860633Y672682D01*
X860533Y672665D01*
X860432Y672652D01*
X860331Y672643D01*
X860230Y672637D01*
X860129Y672635D01*
X854710Y672635D01*
X854609Y672637D01*
X854508Y672643D01*
X854407Y672652D01*
X854306Y672665D01*
X854206Y672682D01*
X854107Y672703D01*
X854009Y672727D01*
X853912Y672755D01*
X853815Y672787D01*
X853720Y672822D01*
X853627Y672861D01*
X853535Y672903D01*
X853444Y672949D01*
X853356Y672998D01*
X853269Y673050D01*
X853184Y673106D01*
X853101Y673164D01*
X853021Y673226D01*
X852943Y673291D01*
X852867Y673358D01*
X852794Y673428D01*
X852724Y673501D01*
X852657Y673577D01*
X852592Y673655D01*
X852530Y673735D01*
X852472Y673818D01*
X852416Y673903D01*
X852364Y673990D01*
X852315Y674078D01*
X852269Y674169D01*
X852227Y674261D01*
X852188Y674354D01*
X852153Y674449D01*
X852121Y674546D01*
X852093Y674643D01*
X852069Y674741D01*
X852048Y674840D01*
X852031Y674940D01*
X852018Y675041D01*
X852009Y675142D01*
X852003Y675243D01*
X852001Y675344D01*
X852001Y679859D01*
X852001Y687297D02*
X860129Y687297D01*
X860230Y687299D01*
X860331Y687305D01*
X860432Y687314D01*
X860533Y687327D01*
X860633Y687344D01*
X860732Y687365D01*
X860830Y687389D01*
X860927Y687417D01*
X861024Y687449D01*
X861119Y687484D01*
X861212Y687523D01*
X861304Y687565D01*
X861395Y687611D01*
X861484Y687660D01*
X861570Y687712D01*
X861655Y687768D01*
X861738Y687826D01*
X861818Y687888D01*
X861896Y687953D01*
X861972Y688020D01*
X862045Y688090D01*
X862115Y688163D01*
X862182Y688239D01*
X862247Y688317D01*
X862309Y688397D01*
X862367Y688480D01*
X862423Y688565D01*
X862475Y688652D01*
X862524Y688740D01*
X862570Y688831D01*
X862612Y688923D01*
X862651Y689016D01*
X862686Y689111D01*
X862718Y689208D01*
X862746Y689305D01*
X862770Y689403D01*
X862791Y689502D01*
X862808Y689602D01*
X862821Y689703D01*
X862830Y689804D01*
X862836Y689905D01*
X862838Y690006D01*
X862838Y694522D01*
X852001Y694522D01*
X862838Y704092D02*
X862838Y707704D01*
X862838Y704092D02*
X862836Y703991D01*
X862830Y703890D01*
X862821Y703789D01*
X862808Y703688D01*
X862791Y703588D01*
X862770Y703489D01*
X862746Y703391D01*
X862718Y703294D01*
X862686Y703197D01*
X862651Y703102D01*
X862612Y703009D01*
X862570Y702917D01*
X862524Y702826D01*
X862475Y702738D01*
X862423Y702651D01*
X862367Y702566D01*
X862309Y702483D01*
X862247Y702403D01*
X862182Y702325D01*
X862115Y702249D01*
X862045Y702176D01*
X861972Y702106D01*
X861896Y702039D01*
X861818Y701974D01*
X861738Y701912D01*
X861655Y701854D01*
X861570Y701798D01*
X861484Y701746D01*
X861395Y701697D01*
X861304Y701651D01*
X861212Y701609D01*
X861119Y701570D01*
X861024Y701535D01*
X860927Y701503D01*
X860830Y701475D01*
X860732Y701451D01*
X860633Y701430D01*
X860533Y701413D01*
X860432Y701400D01*
X860331Y701391D01*
X860230Y701385D01*
X860129Y701383D01*
X854710Y701383D01*
X854609Y701385D01*
X854508Y701391D01*
X854407Y701400D01*
X854306Y701413D01*
X854206Y701430D01*
X854107Y701451D01*
X854009Y701475D01*
X853912Y701503D01*
X853815Y701535D01*
X853720Y701570D01*
X853627Y701609D01*
X853535Y701651D01*
X853444Y701697D01*
X853356Y701746D01*
X853269Y701798D01*
X853184Y701854D01*
X853101Y701912D01*
X853021Y701974D01*
X852943Y702039D01*
X852867Y702106D01*
X852794Y702176D01*
X852724Y702249D01*
X852657Y702325D01*
X852592Y702403D01*
X852530Y702483D01*
X852472Y702566D01*
X852416Y702651D01*
X852364Y702738D01*
X852315Y702826D01*
X852269Y702917D01*
X852227Y703009D01*
X852188Y703102D01*
X852153Y703197D01*
X852121Y703294D01*
X852093Y703391D01*
X852069Y703489D01*
X852048Y703588D01*
X852031Y703688D01*
X852018Y703789D01*
X852009Y703890D01*
X852003Y703991D01*
X852001Y704092D01*
X852001Y707704D01*
X852001Y712052D02*
X852001Y717470D01*
X846582Y713858D02*
X860129Y713858D01*
X860230Y713860D01*
X860331Y713866D01*
X860432Y713875D01*
X860533Y713888D01*
X860633Y713905D01*
X860732Y713926D01*
X860830Y713950D01*
X860927Y713978D01*
X861024Y714010D01*
X861119Y714045D01*
X861212Y714084D01*
X861304Y714126D01*
X861395Y714172D01*
X861484Y714221D01*
X861570Y714273D01*
X861655Y714329D01*
X861738Y714387D01*
X861818Y714449D01*
X861896Y714514D01*
X861972Y714581D01*
X862045Y714651D01*
X862115Y714724D01*
X862182Y714800D01*
X862247Y714878D01*
X862309Y714958D01*
X862367Y715041D01*
X862423Y715126D01*
X862475Y715213D01*
X862524Y715301D01*
X862570Y715392D01*
X862612Y715484D01*
X862651Y715577D01*
X862686Y715672D01*
X862718Y715769D01*
X862746Y715866D01*
X862770Y715964D01*
X862791Y716063D01*
X862808Y716163D01*
X862821Y716264D01*
X862830Y716365D01*
X862836Y716466D01*
X862838Y716567D01*
X862838Y717470D01*
X859226Y723249D02*
X855613Y723249D01*
X855494Y723251D01*
X855374Y723257D01*
X855255Y723267D01*
X855137Y723281D01*
X855018Y723298D01*
X854901Y723320D01*
X854784Y723345D01*
X854669Y723375D01*
X854554Y723408D01*
X854440Y723445D01*
X854328Y723485D01*
X854217Y723530D01*
X854108Y723578D01*
X854000Y723629D01*
X853894Y723684D01*
X853790Y723743D01*
X853688Y723805D01*
X853588Y723870D01*
X853490Y723939D01*
X853394Y724011D01*
X853301Y724086D01*
X853211Y724163D01*
X853123Y724244D01*
X853038Y724328D01*
X852956Y724415D01*
X852876Y724504D01*
X852800Y724596D01*
X852726Y724690D01*
X852656Y724787D01*
X852589Y724885D01*
X852525Y724986D01*
X852465Y725090D01*
X852408Y725195D01*
X852355Y725302D01*
X852305Y725410D01*
X852259Y725520D01*
X852217Y725632D01*
X852178Y725745D01*
X852143Y725859D01*
X852112Y725974D01*
X852084Y726091D01*
X852061Y726208D01*
X852041Y726325D01*
X852025Y726444D01*
X852013Y726563D01*
X852005Y726682D01*
X852001Y726801D01*
X852001Y726921D01*
X852005Y727040D01*
X852013Y727159D01*
X852025Y727278D01*
X852041Y727397D01*
X852061Y727514D01*
X852084Y727631D01*
X852112Y727748D01*
X852143Y727863D01*
X852178Y727977D01*
X852217Y728090D01*
X852259Y728202D01*
X852305Y728312D01*
X852355Y728420D01*
X852408Y728527D01*
X852465Y728632D01*
X852525Y728736D01*
X852589Y728837D01*
X852656Y728935D01*
X852726Y729032D01*
X852800Y729126D01*
X852876Y729218D01*
X852956Y729307D01*
X853038Y729394D01*
X853123Y729478D01*
X853211Y729559D01*
X853301Y729636D01*
X853394Y729711D01*
X853490Y729783D01*
X853588Y729852D01*
X853688Y729917D01*
X853790Y729979D01*
X853894Y730038D01*
X854000Y730093D01*
X854108Y730144D01*
X854217Y730192D01*
X854328Y730237D01*
X854440Y730277D01*
X854554Y730314D01*
X854669Y730347D01*
X854784Y730377D01*
X854901Y730402D01*
X855018Y730424D01*
X855137Y730441D01*
X855255Y730455D01*
X855374Y730465D01*
X855494Y730471D01*
X855613Y730473D01*
X855613Y730474D02*
X859226Y730474D01*
X859226Y730473D02*
X859345Y730471D01*
X859465Y730465D01*
X859584Y730455D01*
X859702Y730441D01*
X859821Y730424D01*
X859938Y730402D01*
X860055Y730377D01*
X860170Y730347D01*
X860285Y730314D01*
X860399Y730277D01*
X860511Y730237D01*
X860622Y730192D01*
X860731Y730144D01*
X860839Y730093D01*
X860945Y730038D01*
X861049Y729979D01*
X861151Y729917D01*
X861251Y729852D01*
X861349Y729783D01*
X861445Y729711D01*
X861538Y729636D01*
X861628Y729559D01*
X861716Y729478D01*
X861801Y729394D01*
X861883Y729307D01*
X861963Y729218D01*
X862039Y729126D01*
X862113Y729032D01*
X862183Y728935D01*
X862250Y728837D01*
X862314Y728736D01*
X862374Y728632D01*
X862431Y728527D01*
X862484Y728420D01*
X862534Y728312D01*
X862580Y728202D01*
X862622Y728090D01*
X862661Y727977D01*
X862696Y727863D01*
X862727Y727748D01*
X862755Y727631D01*
X862778Y727514D01*
X862798Y727397D01*
X862814Y727278D01*
X862826Y727159D01*
X862834Y727040D01*
X862838Y726921D01*
X862838Y726801D01*
X862834Y726682D01*
X862826Y726563D01*
X862814Y726444D01*
X862798Y726325D01*
X862778Y726208D01*
X862755Y726091D01*
X862727Y725974D01*
X862696Y725859D01*
X862661Y725745D01*
X862622Y725632D01*
X862580Y725520D01*
X862534Y725410D01*
X862484Y725302D01*
X862431Y725195D01*
X862374Y725090D01*
X862314Y724986D01*
X862250Y724885D01*
X862183Y724787D01*
X862113Y724690D01*
X862039Y724596D01*
X861963Y724504D01*
X861883Y724415D01*
X861801Y724328D01*
X861716Y724244D01*
X861628Y724163D01*
X861538Y724086D01*
X861445Y724011D01*
X861349Y723939D01*
X861251Y723870D01*
X861151Y723805D01*
X861049Y723743D01*
X860945Y723684D01*
X860839Y723629D01*
X860731Y723578D01*
X860622Y723530D01*
X860511Y723485D01*
X860399Y723445D01*
X860285Y723408D01*
X860170Y723375D01*
X860055Y723345D01*
X859938Y723320D01*
X859821Y723298D01*
X859702Y723281D01*
X859584Y723267D01*
X859465Y723257D01*
X859345Y723251D01*
X859226Y723249D01*
X862838Y737402D02*
X852001Y737402D01*
X852001Y742820D01*
X853807Y742820D01*
X554087Y153162D02*
X546862Y153162D01*
X546862Y169418D01*
X554087Y169418D01*
X552281Y162193D02*
X546862Y162193D01*
X560409Y153162D02*
X567634Y153162D01*
X560409Y153162D02*
X560409Y169418D01*
X567634Y169418D01*
X565828Y162193D02*
X560409Y162193D01*
X581742Y153162D02*
X587161Y153162D01*
X587279Y153164D01*
X587397Y153170D01*
X587515Y153179D01*
X587632Y153193D01*
X587749Y153210D01*
X587866Y153231D01*
X587981Y153256D01*
X588096Y153285D01*
X588210Y153318D01*
X588322Y153354D01*
X588433Y153394D01*
X588543Y153437D01*
X588652Y153484D01*
X588759Y153534D01*
X588864Y153589D01*
X588967Y153646D01*
X589068Y153707D01*
X589168Y153771D01*
X589265Y153838D01*
X589360Y153908D01*
X589452Y153982D01*
X589543Y154058D01*
X589630Y154138D01*
X589715Y154220D01*
X589797Y154305D01*
X589877Y154392D01*
X589953Y154483D01*
X590027Y154575D01*
X590097Y154670D01*
X590164Y154767D01*
X590228Y154867D01*
X590289Y154968D01*
X590346Y155071D01*
X590401Y155176D01*
X590451Y155283D01*
X590498Y155392D01*
X590541Y155502D01*
X590581Y155613D01*
X590617Y155725D01*
X590650Y155839D01*
X590679Y155954D01*
X590704Y156069D01*
X590725Y156186D01*
X590742Y156303D01*
X590756Y156420D01*
X590765Y156538D01*
X590771Y156656D01*
X590773Y156774D01*
X590773Y158581D01*
X590771Y158699D01*
X590765Y158817D01*
X590756Y158935D01*
X590742Y159052D01*
X590725Y159169D01*
X590704Y159286D01*
X590679Y159401D01*
X590650Y159516D01*
X590617Y159630D01*
X590581Y159742D01*
X590541Y159853D01*
X590498Y159963D01*
X590451Y160072D01*
X590401Y160179D01*
X590346Y160284D01*
X590289Y160387D01*
X590228Y160488D01*
X590164Y160588D01*
X590097Y160685D01*
X590027Y160780D01*
X589953Y160872D01*
X589877Y160963D01*
X589797Y161050D01*
X589715Y161135D01*
X589630Y161217D01*
X589543Y161297D01*
X589452Y161373D01*
X589360Y161447D01*
X589265Y161517D01*
X589168Y161584D01*
X589068Y161648D01*
X588967Y161709D01*
X588864Y161766D01*
X588759Y161821D01*
X588652Y161871D01*
X588543Y161918D01*
X588433Y161961D01*
X588322Y162001D01*
X588210Y162037D01*
X588096Y162070D01*
X587981Y162099D01*
X587866Y162124D01*
X587749Y162145D01*
X587632Y162162D01*
X587515Y162176D01*
X587397Y162185D01*
X587279Y162191D01*
X587161Y162193D01*
X581742Y162193D01*
X581742Y169418D01*
X590773Y169418D01*
X597373Y162193D02*
X602792Y162193D01*
X602910Y162191D01*
X603028Y162185D01*
X603146Y162176D01*
X603263Y162162D01*
X603380Y162145D01*
X603497Y162124D01*
X603612Y162099D01*
X603727Y162070D01*
X603841Y162037D01*
X603953Y162001D01*
X604064Y161961D01*
X604174Y161918D01*
X604283Y161871D01*
X604390Y161821D01*
X604495Y161766D01*
X604598Y161709D01*
X604699Y161648D01*
X604799Y161584D01*
X604896Y161517D01*
X604991Y161447D01*
X605083Y161373D01*
X605174Y161297D01*
X605261Y161217D01*
X605346Y161135D01*
X605428Y161050D01*
X605508Y160963D01*
X605584Y160872D01*
X605658Y160780D01*
X605728Y160685D01*
X605795Y160588D01*
X605859Y160488D01*
X605920Y160387D01*
X605977Y160284D01*
X606032Y160179D01*
X606082Y160072D01*
X606129Y159963D01*
X606172Y159853D01*
X606212Y159742D01*
X606248Y159630D01*
X606281Y159516D01*
X606310Y159401D01*
X606335Y159286D01*
X606356Y159169D01*
X606373Y159052D01*
X606387Y158935D01*
X606396Y158817D01*
X606402Y158699D01*
X606404Y158581D01*
X606404Y157678D01*
X606405Y157678D02*
X606403Y157545D01*
X606397Y157413D01*
X606387Y157281D01*
X606374Y157149D01*
X606356Y157017D01*
X606335Y156887D01*
X606310Y156756D01*
X606281Y156627D01*
X606248Y156499D01*
X606212Y156371D01*
X606172Y156245D01*
X606128Y156120D01*
X606080Y155996D01*
X606029Y155874D01*
X605974Y155753D01*
X605916Y155634D01*
X605854Y155516D01*
X605789Y155401D01*
X605720Y155287D01*
X605649Y155176D01*
X605573Y155067D01*
X605495Y154960D01*
X605414Y154855D01*
X605329Y154753D01*
X605242Y154653D01*
X605152Y154556D01*
X605059Y154461D01*
X604963Y154370D01*
X604865Y154281D01*
X604764Y154195D01*
X604660Y154112D01*
X604554Y154032D01*
X604446Y153956D01*
X604336Y153882D01*
X604223Y153812D01*
X604109Y153745D01*
X603992Y153682D01*
X603874Y153622D01*
X603754Y153565D01*
X603632Y153512D01*
X603509Y153463D01*
X603385Y153417D01*
X603259Y153375D01*
X603132Y153337D01*
X603004Y153302D01*
X602875Y153271D01*
X602746Y153244D01*
X602615Y153221D01*
X602484Y153201D01*
X602352Y153186D01*
X602220Y153174D01*
X602088Y153166D01*
X601955Y153162D01*
X601823Y153162D01*
X601690Y153166D01*
X601558Y153174D01*
X601426Y153186D01*
X601294Y153201D01*
X601163Y153221D01*
X601032Y153244D01*
X600903Y153271D01*
X600774Y153302D01*
X600646Y153337D01*
X600519Y153375D01*
X600393Y153417D01*
X600269Y153463D01*
X600146Y153512D01*
X600024Y153565D01*
X599904Y153622D01*
X599786Y153682D01*
X599669Y153745D01*
X599555Y153812D01*
X599442Y153882D01*
X599332Y153956D01*
X599224Y154032D01*
X599118Y154112D01*
X599014Y154195D01*
X598913Y154281D01*
X598815Y154370D01*
X598719Y154461D01*
X598626Y154556D01*
X598536Y154653D01*
X598449Y154753D01*
X598364Y154855D01*
X598283Y154960D01*
X598205Y155067D01*
X598129Y155176D01*
X598058Y155287D01*
X597989Y155401D01*
X597924Y155516D01*
X597862Y155634D01*
X597804Y155753D01*
X597749Y155874D01*
X597698Y155996D01*
X597650Y156120D01*
X597606Y156245D01*
X597566Y156371D01*
X597530Y156499D01*
X597497Y156627D01*
X597468Y156756D01*
X597443Y156887D01*
X597422Y157017D01*
X597404Y157149D01*
X597391Y157281D01*
X597381Y157413D01*
X597375Y157545D01*
X597373Y157678D01*
X597373Y162193D01*
X597375Y162370D01*
X597382Y162548D01*
X597393Y162725D01*
X597408Y162901D01*
X597427Y163077D01*
X597451Y163253D01*
X597479Y163428D01*
X597512Y163603D01*
X597549Y163776D01*
X597590Y163949D01*
X597635Y164120D01*
X597684Y164290D01*
X597738Y164459D01*
X597795Y164627D01*
X597857Y164793D01*
X597923Y164958D01*
X597993Y165121D01*
X598067Y165282D01*
X598144Y165441D01*
X598226Y165599D01*
X598312Y165754D01*
X598401Y165907D01*
X598494Y166058D01*
X598591Y166207D01*
X598691Y166353D01*
X598795Y166497D01*
X598902Y166638D01*
X599013Y166776D01*
X599127Y166912D01*
X599245Y167045D01*
X599365Y167175D01*
X599489Y167302D01*
X599616Y167426D01*
X599746Y167546D01*
X599879Y167664D01*
X600014Y167778D01*
X600153Y167889D01*
X600294Y167996D01*
X600438Y168100D01*
X600584Y168200D01*
X600733Y168297D01*
X600884Y168390D01*
X601037Y168479D01*
X601192Y168565D01*
X601350Y168647D01*
X601509Y168724D01*
X601670Y168798D01*
X601833Y168868D01*
X601998Y168934D01*
X602164Y168996D01*
X602332Y169053D01*
X602501Y169107D01*
X602671Y169156D01*
X602842Y169201D01*
X603015Y169242D01*
X603188Y169279D01*
X603363Y169312D01*
X603538Y169340D01*
X603714Y169364D01*
X603890Y169383D01*
X604066Y169398D01*
X604243Y169409D01*
X604421Y169416D01*
X604598Y169418D01*
X614360Y167160D02*
X614223Y166871D01*
X614093Y166579D01*
X613970Y166283D01*
X613855Y165985D01*
X613746Y165684D01*
X613645Y165381D01*
X613551Y165075D01*
X613464Y164768D01*
X613385Y164458D01*
X613313Y164146D01*
X613249Y163833D01*
X613192Y163518D01*
X613142Y163202D01*
X613100Y162885D01*
X613066Y162567D01*
X613039Y162249D01*
X613020Y161929D01*
X613009Y161610D01*
X613005Y161290D01*
X614359Y167161D02*
X614398Y167269D01*
X614441Y167376D01*
X614487Y167481D01*
X614538Y167585D01*
X614591Y167687D01*
X614648Y167787D01*
X614709Y167885D01*
X614773Y167980D01*
X614840Y168074D01*
X614911Y168165D01*
X614984Y168254D01*
X615061Y168340D01*
X615140Y168423D01*
X615222Y168504D01*
X615307Y168582D01*
X615395Y168656D01*
X615485Y168728D01*
X615577Y168796D01*
X615672Y168862D01*
X615769Y168924D01*
X615868Y168982D01*
X615970Y169038D01*
X616072Y169089D01*
X616177Y169137D01*
X616283Y169182D01*
X616391Y169223D01*
X616500Y169260D01*
X616610Y169293D01*
X616722Y169322D01*
X616834Y169348D01*
X616947Y169370D01*
X617061Y169387D01*
X617175Y169401D01*
X617290Y169411D01*
X617405Y169417D01*
X617520Y169419D01*
X617520Y169418D02*
X617635Y169416D01*
X617750Y169410D01*
X617865Y169400D01*
X617979Y169386D01*
X618093Y169369D01*
X618206Y169347D01*
X618318Y169321D01*
X618430Y169292D01*
X618540Y169259D01*
X618649Y169222D01*
X618757Y169181D01*
X618863Y169136D01*
X618968Y169088D01*
X619070Y169037D01*
X619171Y168981D01*
X619271Y168923D01*
X619368Y168861D01*
X619462Y168796D01*
X619555Y168727D01*
X619645Y168655D01*
X619733Y168581D01*
X619818Y168503D01*
X619900Y168422D01*
X619979Y168339D01*
X620056Y168253D01*
X620129Y168164D01*
X620200Y168073D01*
X620267Y167979D01*
X620331Y167884D01*
X620392Y167786D01*
X620449Y167686D01*
X620502Y167584D01*
X620553Y167480D01*
X620599Y167375D01*
X620642Y167268D01*
X620681Y167160D01*
X620680Y167160D02*
X620817Y166871D01*
X620947Y166579D01*
X621070Y166283D01*
X621185Y165985D01*
X621294Y165684D01*
X621395Y165381D01*
X621489Y165075D01*
X621576Y164768D01*
X621655Y164458D01*
X621727Y164146D01*
X621791Y163833D01*
X621848Y163518D01*
X621898Y163202D01*
X621940Y162885D01*
X621974Y162567D01*
X622001Y162249D01*
X622020Y161929D01*
X622031Y161610D01*
X622035Y161290D01*
X613005Y161290D02*
X613009Y160970D01*
X613020Y160651D01*
X613039Y160331D01*
X613066Y160013D01*
X613100Y159695D01*
X613142Y159378D01*
X613192Y159062D01*
X613249Y158747D01*
X613313Y158434D01*
X613385Y158122D01*
X613464Y157812D01*
X613551Y157505D01*
X613645Y157199D01*
X613746Y156896D01*
X613855Y156595D01*
X613970Y156297D01*
X614093Y156001D01*
X614223Y155709D01*
X614360Y155420D01*
X614359Y155420D02*
X614398Y155312D01*
X614441Y155205D01*
X614487Y155100D01*
X614538Y154996D01*
X614591Y154894D01*
X614648Y154794D01*
X614709Y154696D01*
X614773Y154601D01*
X614840Y154507D01*
X614911Y154416D01*
X614984Y154327D01*
X615061Y154241D01*
X615140Y154158D01*
X615222Y154077D01*
X615307Y153999D01*
X615395Y153925D01*
X615485Y153853D01*
X615578Y153784D01*
X615672Y153719D01*
X615769Y153657D01*
X615869Y153599D01*
X615970Y153543D01*
X616072Y153492D01*
X616177Y153444D01*
X616283Y153399D01*
X616391Y153358D01*
X616500Y153321D01*
X616610Y153288D01*
X616722Y153259D01*
X616834Y153233D01*
X616947Y153211D01*
X617061Y153194D01*
X617175Y153180D01*
X617290Y153170D01*
X617405Y153164D01*
X617520Y153162D01*
X620680Y155420D02*
X620817Y155709D01*
X620947Y156001D01*
X621070Y156297D01*
X621185Y156595D01*
X621294Y156896D01*
X621395Y157199D01*
X621489Y157505D01*
X621576Y157812D01*
X621655Y158122D01*
X621727Y158434D01*
X621791Y158747D01*
X621848Y159062D01*
X621898Y159378D01*
X621940Y159695D01*
X621974Y160013D01*
X622001Y160331D01*
X622020Y160651D01*
X622031Y160970D01*
X622035Y161290D01*
X620681Y155420D02*
X620642Y155312D01*
X620599Y155205D01*
X620553Y155100D01*
X620502Y154996D01*
X620449Y154894D01*
X620392Y154794D01*
X620331Y154696D01*
X620267Y154601D01*
X620200Y154507D01*
X620129Y154416D01*
X620056Y154327D01*
X619979Y154241D01*
X619900Y154158D01*
X619818Y154077D01*
X619733Y153999D01*
X619645Y153925D01*
X619555Y153853D01*
X619462Y153784D01*
X619368Y153719D01*
X619271Y153657D01*
X619171Y153599D01*
X619070Y153543D01*
X618967Y153492D01*
X618863Y153444D01*
X618757Y153399D01*
X618649Y153358D01*
X618540Y153321D01*
X618430Y153288D01*
X618318Y153259D01*
X618206Y153233D01*
X618093Y153211D01*
X617979Y153194D01*
X617865Y153180D01*
X617750Y153170D01*
X617635Y153164D01*
X617520Y153162D01*
X613907Y156774D02*
X621132Y165806D01*
X432562Y131318D02*
X432562Y115062D01*
X432562Y131318D02*
X437078Y131318D01*
X437211Y131316D01*
X437343Y131310D01*
X437475Y131300D01*
X437607Y131287D01*
X437739Y131269D01*
X437869Y131248D01*
X438000Y131223D01*
X438129Y131194D01*
X438257Y131161D01*
X438385Y131125D01*
X438511Y131085D01*
X438636Y131041D01*
X438760Y130993D01*
X438882Y130942D01*
X439003Y130887D01*
X439122Y130829D01*
X439240Y130767D01*
X439355Y130702D01*
X439469Y130633D01*
X439580Y130562D01*
X439689Y130486D01*
X439796Y130408D01*
X439901Y130327D01*
X440003Y130242D01*
X440103Y130155D01*
X440200Y130065D01*
X440295Y129972D01*
X440386Y129876D01*
X440475Y129778D01*
X440561Y129677D01*
X440644Y129573D01*
X440724Y129467D01*
X440800Y129359D01*
X440874Y129249D01*
X440944Y129136D01*
X441011Y129022D01*
X441074Y128905D01*
X441134Y128787D01*
X441191Y128667D01*
X441244Y128545D01*
X441293Y128422D01*
X441339Y128298D01*
X441381Y128172D01*
X441419Y128045D01*
X441454Y127917D01*
X441485Y127788D01*
X441512Y127659D01*
X441535Y127528D01*
X441555Y127397D01*
X441570Y127265D01*
X441582Y127133D01*
X441590Y127001D01*
X441594Y126868D01*
X441594Y126736D01*
X441590Y126603D01*
X441582Y126471D01*
X441570Y126339D01*
X441555Y126207D01*
X441535Y126076D01*
X441512Y125945D01*
X441485Y125816D01*
X441454Y125687D01*
X441419Y125559D01*
X441381Y125432D01*
X441339Y125306D01*
X441293Y125182D01*
X441244Y125059D01*
X441191Y124937D01*
X441134Y124817D01*
X441074Y124699D01*
X441011Y124582D01*
X440944Y124468D01*
X440874Y124355D01*
X440800Y124245D01*
X440724Y124137D01*
X440644Y124031D01*
X440561Y123927D01*
X440475Y123826D01*
X440386Y123728D01*
X440295Y123632D01*
X440200Y123539D01*
X440103Y123449D01*
X440003Y123362D01*
X439901Y123277D01*
X439796Y123196D01*
X439689Y123118D01*
X439580Y123042D01*
X439469Y122971D01*
X439355Y122902D01*
X439240Y122837D01*
X439122Y122775D01*
X439003Y122717D01*
X438882Y122662D01*
X438760Y122611D01*
X438636Y122563D01*
X438511Y122519D01*
X438385Y122479D01*
X438257Y122443D01*
X438129Y122410D01*
X438000Y122381D01*
X437869Y122356D01*
X437739Y122335D01*
X437607Y122317D01*
X437475Y122304D01*
X437343Y122294D01*
X437211Y122288D01*
X437078Y122286D01*
X437078Y122287D02*
X432562Y122287D01*
X447461Y119578D02*
X447461Y126802D01*
X447463Y126935D01*
X447469Y127067D01*
X447479Y127199D01*
X447492Y127331D01*
X447510Y127463D01*
X447531Y127593D01*
X447556Y127724D01*
X447585Y127853D01*
X447618Y127981D01*
X447654Y128109D01*
X447694Y128235D01*
X447738Y128360D01*
X447786Y128484D01*
X447837Y128606D01*
X447892Y128727D01*
X447950Y128846D01*
X448012Y128964D01*
X448077Y129079D01*
X448146Y129193D01*
X448217Y129304D01*
X448293Y129413D01*
X448371Y129520D01*
X448452Y129625D01*
X448537Y129727D01*
X448624Y129827D01*
X448714Y129924D01*
X448807Y130019D01*
X448903Y130110D01*
X449001Y130199D01*
X449102Y130285D01*
X449206Y130368D01*
X449312Y130448D01*
X449420Y130524D01*
X449530Y130598D01*
X449643Y130668D01*
X449757Y130735D01*
X449874Y130798D01*
X449992Y130858D01*
X450112Y130915D01*
X450234Y130968D01*
X450357Y131017D01*
X450481Y131063D01*
X450607Y131105D01*
X450734Y131143D01*
X450862Y131178D01*
X450991Y131209D01*
X451120Y131236D01*
X451251Y131259D01*
X451382Y131279D01*
X451514Y131294D01*
X451646Y131306D01*
X451778Y131314D01*
X451911Y131318D01*
X452043Y131318D01*
X452176Y131314D01*
X452308Y131306D01*
X452440Y131294D01*
X452572Y131279D01*
X452703Y131259D01*
X452834Y131236D01*
X452963Y131209D01*
X453092Y131178D01*
X453220Y131143D01*
X453347Y131105D01*
X453473Y131063D01*
X453597Y131017D01*
X453720Y130968D01*
X453842Y130915D01*
X453962Y130858D01*
X454080Y130798D01*
X454197Y130735D01*
X454311Y130668D01*
X454424Y130598D01*
X454534Y130524D01*
X454642Y130448D01*
X454748Y130368D01*
X454852Y130285D01*
X454953Y130199D01*
X455051Y130110D01*
X455147Y130019D01*
X455240Y129924D01*
X455330Y129827D01*
X455417Y129727D01*
X455502Y129625D01*
X455583Y129520D01*
X455661Y129413D01*
X455737Y129304D01*
X455808Y129193D01*
X455877Y129079D01*
X455942Y128964D01*
X456004Y128846D01*
X456062Y128727D01*
X456117Y128606D01*
X456168Y128484D01*
X456216Y128360D01*
X456260Y128235D01*
X456300Y128109D01*
X456336Y127981D01*
X456369Y127853D01*
X456398Y127724D01*
X456423Y127593D01*
X456444Y127463D01*
X456462Y127331D01*
X456475Y127199D01*
X456485Y127067D01*
X456491Y126935D01*
X456493Y126802D01*
X456492Y126802D02*
X456492Y119578D01*
X456493Y119578D02*
X456491Y119445D01*
X456485Y119313D01*
X456475Y119181D01*
X456462Y119049D01*
X456444Y118917D01*
X456423Y118787D01*
X456398Y118656D01*
X456369Y118527D01*
X456336Y118399D01*
X456300Y118271D01*
X456260Y118145D01*
X456216Y118020D01*
X456168Y117896D01*
X456117Y117774D01*
X456062Y117653D01*
X456004Y117534D01*
X455942Y117416D01*
X455877Y117301D01*
X455808Y117187D01*
X455737Y117076D01*
X455661Y116967D01*
X455583Y116860D01*
X455502Y116755D01*
X455417Y116653D01*
X455330Y116553D01*
X455240Y116456D01*
X455147Y116361D01*
X455051Y116270D01*
X454953Y116181D01*
X454852Y116095D01*
X454748Y116012D01*
X454642Y115932D01*
X454534Y115856D01*
X454424Y115782D01*
X454311Y115712D01*
X454197Y115645D01*
X454080Y115582D01*
X453962Y115522D01*
X453842Y115465D01*
X453720Y115412D01*
X453597Y115363D01*
X453473Y115317D01*
X453347Y115275D01*
X453220Y115237D01*
X453092Y115202D01*
X452963Y115171D01*
X452834Y115144D01*
X452703Y115121D01*
X452572Y115101D01*
X452440Y115086D01*
X452308Y115074D01*
X452176Y115066D01*
X452043Y115062D01*
X451911Y115062D01*
X451778Y115066D01*
X451646Y115074D01*
X451514Y115086D01*
X451382Y115101D01*
X451251Y115121D01*
X451120Y115144D01*
X450991Y115171D01*
X450862Y115202D01*
X450734Y115237D01*
X450607Y115275D01*
X450481Y115317D01*
X450357Y115363D01*
X450234Y115412D01*
X450112Y115465D01*
X449992Y115522D01*
X449874Y115582D01*
X449757Y115645D01*
X449643Y115712D01*
X449530Y115782D01*
X449420Y115856D01*
X449312Y115932D01*
X449206Y116012D01*
X449102Y116095D01*
X449001Y116181D01*
X448903Y116270D01*
X448807Y116361D01*
X448714Y116456D01*
X448624Y116553D01*
X448537Y116653D01*
X448452Y116755D01*
X448371Y116860D01*
X448293Y116967D01*
X448217Y117076D01*
X448146Y117187D01*
X448077Y117301D01*
X448012Y117416D01*
X447950Y117534D01*
X447892Y117653D01*
X447837Y117774D01*
X447786Y117896D01*
X447738Y118020D01*
X447694Y118145D01*
X447654Y118271D01*
X447618Y118399D01*
X447585Y118527D01*
X447556Y118656D01*
X447531Y118787D01*
X447510Y118917D01*
X447492Y119049D01*
X447479Y119181D01*
X447469Y119313D01*
X447463Y119445D01*
X447461Y119578D01*
X462467Y131318D02*
X466080Y115062D01*
X469692Y125899D01*
X473305Y115062D01*
X476917Y131318D01*
X483443Y115062D02*
X490668Y115062D01*
X483443Y115062D02*
X483443Y131318D01*
X490668Y131318D01*
X488862Y124093D02*
X483443Y124093D01*
X497052Y131318D02*
X497052Y115062D01*
X497052Y131318D02*
X501567Y131318D01*
X501700Y131316D01*
X501832Y131310D01*
X501964Y131300D01*
X502096Y131287D01*
X502228Y131269D01*
X502358Y131248D01*
X502489Y131223D01*
X502618Y131194D01*
X502746Y131161D01*
X502874Y131125D01*
X503000Y131085D01*
X503125Y131041D01*
X503249Y130993D01*
X503371Y130942D01*
X503492Y130887D01*
X503611Y130829D01*
X503729Y130767D01*
X503844Y130702D01*
X503958Y130633D01*
X504069Y130562D01*
X504178Y130486D01*
X504285Y130408D01*
X504390Y130327D01*
X504492Y130242D01*
X504592Y130155D01*
X504689Y130065D01*
X504784Y129972D01*
X504875Y129876D01*
X504964Y129778D01*
X505050Y129677D01*
X505133Y129573D01*
X505213Y129467D01*
X505289Y129359D01*
X505363Y129249D01*
X505433Y129136D01*
X505500Y129022D01*
X505563Y128905D01*
X505623Y128787D01*
X505680Y128667D01*
X505733Y128545D01*
X505782Y128422D01*
X505828Y128298D01*
X505870Y128172D01*
X505908Y128045D01*
X505943Y127917D01*
X505974Y127788D01*
X506001Y127659D01*
X506024Y127528D01*
X506044Y127397D01*
X506059Y127265D01*
X506071Y127133D01*
X506079Y127001D01*
X506083Y126868D01*
X506083Y126736D01*
X506079Y126603D01*
X506071Y126471D01*
X506059Y126339D01*
X506044Y126207D01*
X506024Y126076D01*
X506001Y125945D01*
X505974Y125816D01*
X505943Y125687D01*
X505908Y125559D01*
X505870Y125432D01*
X505828Y125306D01*
X505782Y125182D01*
X505733Y125059D01*
X505680Y124937D01*
X505623Y124817D01*
X505563Y124699D01*
X505500Y124582D01*
X505433Y124468D01*
X505363Y124355D01*
X505289Y124245D01*
X505213Y124137D01*
X505133Y124031D01*
X505050Y123927D01*
X504964Y123826D01*
X504875Y123728D01*
X504784Y123632D01*
X504689Y123539D01*
X504592Y123449D01*
X504492Y123362D01*
X504390Y123277D01*
X504285Y123196D01*
X504178Y123118D01*
X504069Y123042D01*
X503958Y122971D01*
X503844Y122902D01*
X503729Y122837D01*
X503611Y122775D01*
X503492Y122717D01*
X503371Y122662D01*
X503249Y122611D01*
X503125Y122563D01*
X503000Y122519D01*
X502874Y122479D01*
X502746Y122443D01*
X502618Y122410D01*
X502489Y122381D01*
X502358Y122356D01*
X502228Y122335D01*
X502096Y122317D01*
X501964Y122304D01*
X501832Y122294D01*
X501700Y122288D01*
X501567Y122286D01*
X501567Y122287D02*
X497052Y122287D01*
X502470Y122287D02*
X506083Y115062D01*
X521479Y115062D02*
X528704Y115062D01*
X521479Y115062D02*
X521479Y131318D01*
X528704Y131318D01*
X526897Y124093D02*
X521479Y124093D01*
X535026Y131318D02*
X535026Y115062D01*
X542251Y115062D01*
X548573Y115062D02*
X555798Y115062D01*
X548573Y115062D02*
X548573Y131318D01*
X555798Y131318D01*
X553992Y124093D02*
X548573Y124093D01*
X565142Y115062D02*
X568755Y115062D01*
X565142Y115062D02*
X565024Y115064D01*
X564906Y115070D01*
X564788Y115079D01*
X564671Y115093D01*
X564554Y115110D01*
X564437Y115131D01*
X564322Y115156D01*
X564207Y115185D01*
X564093Y115218D01*
X563981Y115254D01*
X563870Y115294D01*
X563760Y115337D01*
X563651Y115384D01*
X563544Y115434D01*
X563439Y115489D01*
X563336Y115546D01*
X563235Y115607D01*
X563135Y115671D01*
X563038Y115738D01*
X562943Y115808D01*
X562851Y115882D01*
X562760Y115958D01*
X562673Y116038D01*
X562588Y116120D01*
X562506Y116205D01*
X562426Y116292D01*
X562350Y116383D01*
X562276Y116475D01*
X562206Y116570D01*
X562139Y116667D01*
X562075Y116767D01*
X562014Y116868D01*
X561957Y116971D01*
X561902Y117076D01*
X561852Y117183D01*
X561805Y117292D01*
X561762Y117402D01*
X561722Y117513D01*
X561686Y117625D01*
X561653Y117739D01*
X561624Y117854D01*
X561599Y117969D01*
X561578Y118086D01*
X561561Y118203D01*
X561547Y118320D01*
X561538Y118438D01*
X561532Y118556D01*
X561530Y118674D01*
X561530Y127706D01*
X561532Y127824D01*
X561538Y127942D01*
X561547Y128060D01*
X561561Y128177D01*
X561578Y128294D01*
X561599Y128411D01*
X561624Y128526D01*
X561653Y128641D01*
X561686Y128755D01*
X561722Y128867D01*
X561762Y128978D01*
X561805Y129088D01*
X561852Y129197D01*
X561902Y129304D01*
X561956Y129409D01*
X562014Y129512D01*
X562075Y129613D01*
X562139Y129713D01*
X562206Y129810D01*
X562276Y129905D01*
X562350Y129997D01*
X562426Y130088D01*
X562506Y130175D01*
X562588Y130260D01*
X562673Y130342D01*
X562760Y130422D01*
X562851Y130498D01*
X562943Y130572D01*
X563038Y130642D01*
X563135Y130709D01*
X563235Y130773D01*
X563336Y130834D01*
X563439Y130891D01*
X563544Y130945D01*
X563651Y130996D01*
X563760Y131043D01*
X563870Y131086D01*
X563981Y131126D01*
X564093Y131162D01*
X564207Y131195D01*
X564322Y131224D01*
X564437Y131249D01*
X564554Y131270D01*
X564671Y131287D01*
X564788Y131301D01*
X564906Y131310D01*
X565024Y131316D01*
X565142Y131318D01*
X568755Y131318D01*
X578069Y131318D02*
X578069Y115062D01*
X573553Y131318D02*
X582584Y131318D01*
X588755Y131318D02*
X588755Y115062D01*
X588755Y131318D02*
X593270Y131318D01*
X593403Y131316D01*
X593535Y131310D01*
X593667Y131300D01*
X593799Y131287D01*
X593931Y131269D01*
X594061Y131248D01*
X594192Y131223D01*
X594321Y131194D01*
X594449Y131161D01*
X594577Y131125D01*
X594703Y131085D01*
X594828Y131041D01*
X594952Y130993D01*
X595074Y130942D01*
X595195Y130887D01*
X595314Y130829D01*
X595432Y130767D01*
X595547Y130702D01*
X595661Y130633D01*
X595772Y130562D01*
X595881Y130486D01*
X595988Y130408D01*
X596093Y130327D01*
X596195Y130242D01*
X596295Y130155D01*
X596392Y130065D01*
X596487Y129972D01*
X596578Y129876D01*
X596667Y129778D01*
X596753Y129677D01*
X596836Y129573D01*
X596916Y129467D01*
X596992Y129359D01*
X597066Y129249D01*
X597136Y129136D01*
X597203Y129022D01*
X597266Y128905D01*
X597326Y128787D01*
X597383Y128667D01*
X597436Y128545D01*
X597485Y128422D01*
X597531Y128298D01*
X597573Y128172D01*
X597611Y128045D01*
X597646Y127917D01*
X597677Y127788D01*
X597704Y127659D01*
X597727Y127528D01*
X597747Y127397D01*
X597762Y127265D01*
X597774Y127133D01*
X597782Y127001D01*
X597786Y126868D01*
X597786Y126736D01*
X597782Y126603D01*
X597774Y126471D01*
X597762Y126339D01*
X597747Y126207D01*
X597727Y126076D01*
X597704Y125945D01*
X597677Y125816D01*
X597646Y125687D01*
X597611Y125559D01*
X597573Y125432D01*
X597531Y125306D01*
X597485Y125182D01*
X597436Y125059D01*
X597383Y124937D01*
X597326Y124817D01*
X597266Y124699D01*
X597203Y124582D01*
X597136Y124468D01*
X597066Y124355D01*
X596992Y124245D01*
X596916Y124137D01*
X596836Y124031D01*
X596753Y123927D01*
X596667Y123826D01*
X596578Y123728D01*
X596487Y123632D01*
X596392Y123539D01*
X596295Y123449D01*
X596195Y123362D01*
X596093Y123277D01*
X595988Y123196D01*
X595881Y123118D01*
X595772Y123042D01*
X595661Y122971D01*
X595547Y122902D01*
X595432Y122837D01*
X595314Y122775D01*
X595195Y122717D01*
X595074Y122662D01*
X594952Y122611D01*
X594828Y122563D01*
X594703Y122519D01*
X594577Y122479D01*
X594449Y122443D01*
X594321Y122410D01*
X594192Y122381D01*
X594061Y122356D01*
X593931Y122335D01*
X593799Y122317D01*
X593667Y122304D01*
X593535Y122294D01*
X593403Y122288D01*
X593270Y122286D01*
X593270Y122287D02*
X588755Y122287D01*
X594174Y122287D02*
X597786Y115062D01*
X604295Y119578D02*
X604295Y126802D01*
X604294Y126802D02*
X604296Y126935D01*
X604302Y127067D01*
X604312Y127199D01*
X604325Y127331D01*
X604343Y127463D01*
X604364Y127593D01*
X604389Y127724D01*
X604418Y127853D01*
X604451Y127981D01*
X604487Y128109D01*
X604527Y128235D01*
X604571Y128360D01*
X604619Y128484D01*
X604670Y128606D01*
X604725Y128727D01*
X604783Y128846D01*
X604845Y128964D01*
X604910Y129079D01*
X604979Y129193D01*
X605050Y129304D01*
X605126Y129413D01*
X605204Y129520D01*
X605285Y129625D01*
X605370Y129727D01*
X605457Y129827D01*
X605547Y129924D01*
X605640Y130019D01*
X605736Y130110D01*
X605834Y130199D01*
X605935Y130285D01*
X606039Y130368D01*
X606145Y130448D01*
X606253Y130524D01*
X606363Y130598D01*
X606476Y130668D01*
X606590Y130735D01*
X606707Y130798D01*
X606825Y130858D01*
X606945Y130915D01*
X607067Y130968D01*
X607190Y131017D01*
X607314Y131063D01*
X607440Y131105D01*
X607567Y131143D01*
X607695Y131178D01*
X607824Y131209D01*
X607953Y131236D01*
X608084Y131259D01*
X608215Y131279D01*
X608347Y131294D01*
X608479Y131306D01*
X608611Y131314D01*
X608744Y131318D01*
X608876Y131318D01*
X609009Y131314D01*
X609141Y131306D01*
X609273Y131294D01*
X609405Y131279D01*
X609536Y131259D01*
X609667Y131236D01*
X609796Y131209D01*
X609925Y131178D01*
X610053Y131143D01*
X610180Y131105D01*
X610306Y131063D01*
X610430Y131017D01*
X610553Y130968D01*
X610675Y130915D01*
X610795Y130858D01*
X610913Y130798D01*
X611030Y130735D01*
X611144Y130668D01*
X611257Y130598D01*
X611367Y130524D01*
X611475Y130448D01*
X611581Y130368D01*
X611685Y130285D01*
X611786Y130199D01*
X611884Y130110D01*
X611980Y130019D01*
X612073Y129924D01*
X612163Y129827D01*
X612250Y129727D01*
X612335Y129625D01*
X612416Y129520D01*
X612494Y129413D01*
X612570Y129304D01*
X612641Y129193D01*
X612710Y129079D01*
X612775Y128964D01*
X612837Y128846D01*
X612895Y128727D01*
X612950Y128606D01*
X613001Y128484D01*
X613049Y128360D01*
X613093Y128235D01*
X613133Y128109D01*
X613169Y127981D01*
X613202Y127853D01*
X613231Y127724D01*
X613256Y127593D01*
X613277Y127463D01*
X613295Y127331D01*
X613308Y127199D01*
X613318Y127067D01*
X613324Y126935D01*
X613326Y126802D01*
X613326Y119578D01*
X613324Y119445D01*
X613318Y119313D01*
X613308Y119181D01*
X613295Y119049D01*
X613277Y118917D01*
X613256Y118787D01*
X613231Y118656D01*
X613202Y118527D01*
X613169Y118399D01*
X613133Y118271D01*
X613093Y118145D01*
X613049Y118020D01*
X613001Y117896D01*
X612950Y117774D01*
X612895Y117653D01*
X612837Y117534D01*
X612775Y117416D01*
X612710Y117301D01*
X612641Y117187D01*
X612570Y117076D01*
X612494Y116967D01*
X612416Y116860D01*
X612335Y116755D01*
X612250Y116653D01*
X612163Y116553D01*
X612073Y116456D01*
X611980Y116361D01*
X611884Y116270D01*
X611786Y116181D01*
X611685Y116095D01*
X611581Y116012D01*
X611475Y115932D01*
X611367Y115856D01*
X611257Y115782D01*
X611144Y115712D01*
X611030Y115645D01*
X610913Y115582D01*
X610795Y115522D01*
X610675Y115465D01*
X610553Y115412D01*
X610430Y115363D01*
X610306Y115317D01*
X610180Y115275D01*
X610053Y115237D01*
X609925Y115202D01*
X609796Y115171D01*
X609667Y115144D01*
X609536Y115121D01*
X609405Y115101D01*
X609273Y115086D01*
X609141Y115074D01*
X609009Y115066D01*
X608876Y115062D01*
X608744Y115062D01*
X608611Y115066D01*
X608479Y115074D01*
X608347Y115086D01*
X608215Y115101D01*
X608084Y115121D01*
X607953Y115144D01*
X607824Y115171D01*
X607695Y115202D01*
X607567Y115237D01*
X607440Y115275D01*
X607314Y115317D01*
X607190Y115363D01*
X607067Y115412D01*
X606945Y115465D01*
X606825Y115522D01*
X606707Y115582D01*
X606590Y115645D01*
X606476Y115712D01*
X606363Y115782D01*
X606253Y115856D01*
X606145Y115932D01*
X606039Y116012D01*
X605935Y116095D01*
X605834Y116181D01*
X605736Y116270D01*
X605640Y116361D01*
X605547Y116456D01*
X605457Y116553D01*
X605370Y116653D01*
X605285Y116755D01*
X605204Y116860D01*
X605126Y116967D01*
X605050Y117076D01*
X604979Y117187D01*
X604910Y117301D01*
X604845Y117416D01*
X604783Y117534D01*
X604725Y117653D01*
X604670Y117774D01*
X604619Y117896D01*
X604571Y118020D01*
X604527Y118145D01*
X604487Y118271D01*
X604451Y118399D01*
X604418Y118527D01*
X604389Y118656D01*
X604364Y118787D01*
X604343Y118917D01*
X604325Y119049D01*
X604312Y119181D01*
X604302Y119313D01*
X604296Y119445D01*
X604294Y119578D01*
X620447Y115062D02*
X620447Y131318D01*
X629478Y115062D01*
X629478Y131318D01*
X637988Y131318D02*
X637988Y115062D01*
X636182Y115062D02*
X639795Y115062D01*
X639795Y131318D02*
X636182Y131318D01*
X649551Y115062D02*
X653163Y115062D01*
X649551Y115062D02*
X649433Y115064D01*
X649315Y115070D01*
X649197Y115079D01*
X649080Y115093D01*
X648963Y115110D01*
X648846Y115131D01*
X648731Y115156D01*
X648616Y115185D01*
X648502Y115218D01*
X648390Y115254D01*
X648279Y115294D01*
X648169Y115337D01*
X648060Y115384D01*
X647953Y115434D01*
X647848Y115489D01*
X647745Y115546D01*
X647644Y115607D01*
X647544Y115671D01*
X647447Y115738D01*
X647352Y115808D01*
X647260Y115882D01*
X647169Y115958D01*
X647082Y116038D01*
X646997Y116120D01*
X646915Y116205D01*
X646835Y116292D01*
X646759Y116383D01*
X646685Y116475D01*
X646615Y116570D01*
X646548Y116667D01*
X646484Y116767D01*
X646423Y116868D01*
X646366Y116971D01*
X646311Y117076D01*
X646261Y117183D01*
X646214Y117292D01*
X646171Y117402D01*
X646131Y117513D01*
X646095Y117625D01*
X646062Y117739D01*
X646033Y117854D01*
X646008Y117969D01*
X645987Y118086D01*
X645970Y118203D01*
X645956Y118320D01*
X645947Y118438D01*
X645941Y118556D01*
X645939Y118674D01*
X645938Y118674D02*
X645938Y127706D01*
X645939Y127706D02*
X645941Y127824D01*
X645947Y127942D01*
X645956Y128060D01*
X645970Y128177D01*
X645987Y128294D01*
X646008Y128411D01*
X646033Y128526D01*
X646062Y128641D01*
X646095Y128755D01*
X646131Y128867D01*
X646171Y128978D01*
X646214Y129088D01*
X646261Y129197D01*
X646311Y129304D01*
X646365Y129409D01*
X646423Y129512D01*
X646484Y129613D01*
X646548Y129713D01*
X646615Y129810D01*
X646685Y129905D01*
X646759Y129997D01*
X646835Y130088D01*
X646915Y130175D01*
X646997Y130260D01*
X647082Y130342D01*
X647169Y130422D01*
X647260Y130498D01*
X647352Y130572D01*
X647447Y130642D01*
X647544Y130709D01*
X647644Y130773D01*
X647745Y130834D01*
X647848Y130891D01*
X647953Y130945D01*
X648060Y130996D01*
X648169Y131043D01*
X648279Y131086D01*
X648390Y131126D01*
X648502Y131162D01*
X648616Y131195D01*
X648731Y131224D01*
X648846Y131249D01*
X648963Y131270D01*
X649080Y131287D01*
X649197Y131301D01*
X649315Y131310D01*
X649433Y131316D01*
X649551Y131318D01*
X653163Y131318D01*
X667513Y118674D02*
X667511Y118556D01*
X667505Y118438D01*
X667496Y118320D01*
X667482Y118203D01*
X667465Y118086D01*
X667444Y117969D01*
X667419Y117854D01*
X667390Y117739D01*
X667357Y117625D01*
X667321Y117513D01*
X667281Y117402D01*
X667238Y117292D01*
X667191Y117183D01*
X667141Y117076D01*
X667086Y116971D01*
X667029Y116868D01*
X666968Y116767D01*
X666904Y116667D01*
X666837Y116570D01*
X666767Y116475D01*
X666693Y116383D01*
X666617Y116292D01*
X666537Y116205D01*
X666455Y116120D01*
X666370Y116038D01*
X666283Y115958D01*
X666192Y115882D01*
X666100Y115808D01*
X666005Y115738D01*
X665908Y115671D01*
X665808Y115607D01*
X665707Y115546D01*
X665604Y115489D01*
X665499Y115434D01*
X665392Y115384D01*
X665283Y115337D01*
X665173Y115294D01*
X665062Y115254D01*
X664950Y115218D01*
X664836Y115185D01*
X664721Y115156D01*
X664606Y115131D01*
X664489Y115110D01*
X664372Y115093D01*
X664255Y115079D01*
X664137Y115070D01*
X664019Y115064D01*
X663901Y115062D01*
X663718Y115064D01*
X663536Y115071D01*
X663354Y115082D01*
X663172Y115097D01*
X662990Y115117D01*
X662809Y115140D01*
X662629Y115169D01*
X662449Y115201D01*
X662270Y115238D01*
X662093Y115279D01*
X661916Y115325D01*
X661740Y115374D01*
X661566Y115428D01*
X661392Y115486D01*
X661221Y115548D01*
X661051Y115614D01*
X660882Y115685D01*
X660715Y115759D01*
X660550Y115837D01*
X660387Y115919D01*
X660226Y116005D01*
X660067Y116095D01*
X659910Y116189D01*
X659756Y116286D01*
X659604Y116387D01*
X659454Y116492D01*
X659307Y116600D01*
X659163Y116711D01*
X659021Y116826D01*
X658882Y116945D01*
X658746Y117067D01*
X658613Y117192D01*
X658483Y117320D01*
X658935Y127706D02*
X658937Y127824D01*
X658943Y127942D01*
X658952Y128060D01*
X658966Y128177D01*
X658983Y128294D01*
X659004Y128411D01*
X659029Y128526D01*
X659058Y128641D01*
X659091Y128755D01*
X659127Y128867D01*
X659167Y128978D01*
X659210Y129088D01*
X659257Y129197D01*
X659307Y129304D01*
X659362Y129409D01*
X659419Y129512D01*
X659480Y129613D01*
X659544Y129713D01*
X659611Y129810D01*
X659681Y129905D01*
X659755Y129997D01*
X659831Y130088D01*
X659911Y130175D01*
X659993Y130260D01*
X660078Y130342D01*
X660165Y130422D01*
X660256Y130498D01*
X660348Y130572D01*
X660443Y130642D01*
X660540Y130709D01*
X660640Y130773D01*
X660741Y130834D01*
X660844Y130892D01*
X660949Y130946D01*
X661056Y130996D01*
X661165Y131043D01*
X661275Y131087D01*
X661386Y131126D01*
X661499Y131162D01*
X661612Y131195D01*
X661727Y131224D01*
X661842Y131249D01*
X661959Y131270D01*
X662076Y131287D01*
X662193Y131301D01*
X662311Y131310D01*
X662429Y131316D01*
X662547Y131318D01*
X662708Y131316D01*
X662870Y131310D01*
X663031Y131301D01*
X663192Y131287D01*
X663352Y131270D01*
X663512Y131249D01*
X663672Y131224D01*
X663831Y131195D01*
X663989Y131163D01*
X664146Y131127D01*
X664302Y131087D01*
X664458Y131043D01*
X664612Y130995D01*
X664765Y130944D01*
X664917Y130890D01*
X665068Y130831D01*
X665217Y130770D01*
X665364Y130704D01*
X665510Y130635D01*
X665655Y130563D01*
X665797Y130487D01*
X665938Y130408D01*
X666077Y130326D01*
X666213Y130240D01*
X666348Y130151D01*
X666481Y130059D01*
X666611Y129963D01*
X660740Y124545D02*
X660639Y124607D01*
X660539Y124672D01*
X660442Y124741D01*
X660347Y124813D01*
X660254Y124887D01*
X660164Y124965D01*
X660076Y125046D01*
X659991Y125129D01*
X659909Y125215D01*
X659830Y125304D01*
X659753Y125395D01*
X659680Y125489D01*
X659609Y125585D01*
X659542Y125683D01*
X659478Y125783D01*
X659417Y125886D01*
X659360Y125990D01*
X659306Y126096D01*
X659256Y126204D01*
X659209Y126313D01*
X659165Y126424D01*
X659125Y126536D01*
X659089Y126650D01*
X659057Y126764D01*
X659028Y126880D01*
X659003Y126996D01*
X658982Y127113D01*
X658965Y127231D01*
X658951Y127349D01*
X658942Y127468D01*
X658936Y127587D01*
X658934Y127706D01*
X665708Y121835D02*
X665809Y121773D01*
X665909Y121708D01*
X666006Y121639D01*
X666101Y121567D01*
X666194Y121493D01*
X666284Y121415D01*
X666372Y121334D01*
X666457Y121251D01*
X666539Y121165D01*
X666618Y121076D01*
X666695Y120985D01*
X666768Y120891D01*
X666839Y120795D01*
X666906Y120697D01*
X666970Y120597D01*
X667031Y120494D01*
X667088Y120390D01*
X667142Y120284D01*
X667192Y120176D01*
X667239Y120067D01*
X667283Y119956D01*
X667323Y119844D01*
X667359Y119730D01*
X667391Y119616D01*
X667420Y119500D01*
X667445Y119384D01*
X667466Y119267D01*
X667483Y119149D01*
X667497Y119031D01*
X667506Y118912D01*
X667512Y118793D01*
X667514Y118674D01*
X665708Y121835D02*
X660741Y124545D01*
X682480Y131318D02*
X682480Y115062D01*
X689705Y115062D01*
X694574Y115062D02*
X699992Y131318D01*
X705411Y115062D01*
X704056Y119126D02*
X695928Y119126D01*
X711840Y124093D02*
X716355Y124093D01*
X716355Y124094D02*
X716488Y124092D01*
X716620Y124086D01*
X716752Y124076D01*
X716884Y124063D01*
X717016Y124045D01*
X717146Y124024D01*
X717277Y123999D01*
X717406Y123970D01*
X717534Y123937D01*
X717662Y123901D01*
X717788Y123861D01*
X717913Y123817D01*
X718037Y123769D01*
X718159Y123718D01*
X718280Y123663D01*
X718399Y123605D01*
X718517Y123543D01*
X718632Y123478D01*
X718746Y123409D01*
X718857Y123338D01*
X718966Y123262D01*
X719073Y123184D01*
X719178Y123103D01*
X719280Y123018D01*
X719380Y122931D01*
X719477Y122841D01*
X719572Y122748D01*
X719663Y122652D01*
X719752Y122554D01*
X719838Y122453D01*
X719921Y122349D01*
X720001Y122243D01*
X720077Y122135D01*
X720151Y122025D01*
X720221Y121912D01*
X720288Y121798D01*
X720351Y121681D01*
X720411Y121563D01*
X720468Y121443D01*
X720521Y121321D01*
X720570Y121198D01*
X720616Y121074D01*
X720658Y120948D01*
X720696Y120821D01*
X720731Y120693D01*
X720762Y120564D01*
X720789Y120435D01*
X720812Y120304D01*
X720832Y120173D01*
X720847Y120041D01*
X720859Y119909D01*
X720867Y119777D01*
X720871Y119644D01*
X720871Y119512D01*
X720867Y119379D01*
X720859Y119247D01*
X720847Y119115D01*
X720832Y118983D01*
X720812Y118852D01*
X720789Y118721D01*
X720762Y118592D01*
X720731Y118463D01*
X720696Y118335D01*
X720658Y118208D01*
X720616Y118082D01*
X720570Y117958D01*
X720521Y117835D01*
X720468Y117713D01*
X720411Y117593D01*
X720351Y117475D01*
X720288Y117358D01*
X720221Y117244D01*
X720151Y117131D01*
X720077Y117021D01*
X720001Y116913D01*
X719921Y116807D01*
X719838Y116703D01*
X719752Y116602D01*
X719663Y116504D01*
X719572Y116408D01*
X719477Y116315D01*
X719380Y116225D01*
X719280Y116138D01*
X719178Y116053D01*
X719073Y115972D01*
X718966Y115894D01*
X718857Y115818D01*
X718746Y115747D01*
X718632Y115678D01*
X718517Y115613D01*
X718399Y115551D01*
X718280Y115493D01*
X718159Y115438D01*
X718037Y115387D01*
X717913Y115339D01*
X717788Y115295D01*
X717662Y115255D01*
X717534Y115219D01*
X717406Y115186D01*
X717277Y115157D01*
X717146Y115132D01*
X717016Y115111D01*
X716884Y115093D01*
X716752Y115080D01*
X716620Y115070D01*
X716488Y115064D01*
X716355Y115062D01*
X711840Y115062D01*
X711840Y131318D01*
X716355Y131318D01*
X716474Y131316D01*
X716594Y131310D01*
X716713Y131300D01*
X716831Y131286D01*
X716950Y131269D01*
X717067Y131247D01*
X717184Y131222D01*
X717299Y131192D01*
X717414Y131159D01*
X717528Y131122D01*
X717640Y131082D01*
X717751Y131037D01*
X717860Y130989D01*
X717968Y130938D01*
X718074Y130883D01*
X718178Y130824D01*
X718280Y130762D01*
X718380Y130697D01*
X718478Y130628D01*
X718574Y130556D01*
X718667Y130481D01*
X718757Y130404D01*
X718845Y130323D01*
X718930Y130239D01*
X719012Y130152D01*
X719092Y130063D01*
X719168Y129971D01*
X719242Y129877D01*
X719312Y129780D01*
X719379Y129682D01*
X719443Y129581D01*
X719503Y129477D01*
X719560Y129372D01*
X719613Y129265D01*
X719663Y129157D01*
X719709Y129047D01*
X719751Y128935D01*
X719790Y128822D01*
X719825Y128708D01*
X719856Y128593D01*
X719884Y128476D01*
X719907Y128359D01*
X719927Y128242D01*
X719943Y128123D01*
X719955Y128004D01*
X719963Y127885D01*
X719967Y127766D01*
X719967Y127646D01*
X719963Y127527D01*
X719955Y127408D01*
X719943Y127289D01*
X719927Y127170D01*
X719907Y127053D01*
X719884Y126936D01*
X719856Y126819D01*
X719825Y126704D01*
X719790Y126590D01*
X719751Y126477D01*
X719709Y126365D01*
X719663Y126255D01*
X719613Y126147D01*
X719560Y126040D01*
X719503Y125935D01*
X719443Y125831D01*
X719379Y125730D01*
X719312Y125632D01*
X719242Y125535D01*
X719168Y125441D01*
X719092Y125349D01*
X719012Y125260D01*
X718930Y125173D01*
X718845Y125089D01*
X718757Y125008D01*
X718667Y124931D01*
X718574Y124856D01*
X718478Y124784D01*
X718380Y124715D01*
X718280Y124650D01*
X718178Y124588D01*
X718074Y124529D01*
X717968Y124474D01*
X717860Y124423D01*
X717751Y124375D01*
X717640Y124330D01*
X717528Y124290D01*
X717414Y124253D01*
X717299Y124220D01*
X717184Y124190D01*
X717067Y124165D01*
X716950Y124143D01*
X716831Y124126D01*
X716713Y124112D01*
X716594Y124102D01*
X716474Y124096D01*
X716355Y124094D01*
X437078Y85993D02*
X432562Y85993D01*
X437078Y85994D02*
X437211Y85992D01*
X437343Y85986D01*
X437475Y85976D01*
X437607Y85963D01*
X437739Y85945D01*
X437869Y85924D01*
X438000Y85899D01*
X438129Y85870D01*
X438257Y85837D01*
X438385Y85801D01*
X438511Y85761D01*
X438636Y85717D01*
X438760Y85669D01*
X438882Y85618D01*
X439003Y85563D01*
X439122Y85505D01*
X439240Y85443D01*
X439355Y85378D01*
X439469Y85309D01*
X439580Y85238D01*
X439689Y85162D01*
X439796Y85084D01*
X439901Y85003D01*
X440003Y84918D01*
X440103Y84831D01*
X440200Y84741D01*
X440295Y84648D01*
X440386Y84552D01*
X440475Y84454D01*
X440561Y84353D01*
X440644Y84249D01*
X440724Y84143D01*
X440800Y84035D01*
X440874Y83925D01*
X440944Y83812D01*
X441011Y83698D01*
X441074Y83581D01*
X441134Y83463D01*
X441191Y83343D01*
X441244Y83221D01*
X441293Y83098D01*
X441339Y82974D01*
X441381Y82848D01*
X441419Y82721D01*
X441454Y82593D01*
X441485Y82464D01*
X441512Y82335D01*
X441535Y82204D01*
X441555Y82073D01*
X441570Y81941D01*
X441582Y81809D01*
X441590Y81677D01*
X441594Y81544D01*
X441594Y81412D01*
X441590Y81279D01*
X441582Y81147D01*
X441570Y81015D01*
X441555Y80883D01*
X441535Y80752D01*
X441512Y80621D01*
X441485Y80492D01*
X441454Y80363D01*
X441419Y80235D01*
X441381Y80108D01*
X441339Y79982D01*
X441293Y79858D01*
X441244Y79735D01*
X441191Y79613D01*
X441134Y79493D01*
X441074Y79375D01*
X441011Y79258D01*
X440944Y79144D01*
X440874Y79031D01*
X440800Y78921D01*
X440724Y78813D01*
X440644Y78707D01*
X440561Y78603D01*
X440475Y78502D01*
X440386Y78404D01*
X440295Y78308D01*
X440200Y78215D01*
X440103Y78125D01*
X440003Y78038D01*
X439901Y77953D01*
X439796Y77872D01*
X439689Y77794D01*
X439580Y77718D01*
X439469Y77647D01*
X439355Y77578D01*
X439240Y77513D01*
X439122Y77451D01*
X439003Y77393D01*
X438882Y77338D01*
X438760Y77287D01*
X438636Y77239D01*
X438511Y77195D01*
X438385Y77155D01*
X438257Y77119D01*
X438129Y77086D01*
X438000Y77057D01*
X437869Y77032D01*
X437739Y77011D01*
X437607Y76993D01*
X437475Y76980D01*
X437343Y76970D01*
X437211Y76964D01*
X437078Y76962D01*
X432562Y76962D01*
X432562Y93218D01*
X437078Y93218D01*
X437197Y93216D01*
X437317Y93210D01*
X437436Y93200D01*
X437554Y93186D01*
X437673Y93169D01*
X437790Y93147D01*
X437907Y93122D01*
X438022Y93092D01*
X438137Y93059D01*
X438251Y93022D01*
X438363Y92982D01*
X438474Y92937D01*
X438583Y92889D01*
X438691Y92838D01*
X438797Y92783D01*
X438901Y92724D01*
X439003Y92662D01*
X439103Y92597D01*
X439201Y92528D01*
X439297Y92456D01*
X439390Y92381D01*
X439480Y92304D01*
X439568Y92223D01*
X439653Y92139D01*
X439735Y92052D01*
X439815Y91963D01*
X439891Y91871D01*
X439965Y91777D01*
X440035Y91680D01*
X440102Y91582D01*
X440166Y91481D01*
X440226Y91377D01*
X440283Y91272D01*
X440336Y91165D01*
X440386Y91057D01*
X440432Y90947D01*
X440474Y90835D01*
X440513Y90722D01*
X440548Y90608D01*
X440579Y90493D01*
X440607Y90376D01*
X440630Y90259D01*
X440650Y90142D01*
X440666Y90023D01*
X440678Y89904D01*
X440686Y89785D01*
X440690Y89666D01*
X440690Y89546D01*
X440686Y89427D01*
X440678Y89308D01*
X440666Y89189D01*
X440650Y89070D01*
X440630Y88953D01*
X440607Y88836D01*
X440579Y88719D01*
X440548Y88604D01*
X440513Y88490D01*
X440474Y88377D01*
X440432Y88265D01*
X440386Y88155D01*
X440336Y88047D01*
X440283Y87940D01*
X440226Y87835D01*
X440166Y87731D01*
X440102Y87630D01*
X440035Y87532D01*
X439965Y87435D01*
X439891Y87341D01*
X439815Y87249D01*
X439735Y87160D01*
X439653Y87073D01*
X439568Y86989D01*
X439480Y86908D01*
X439390Y86831D01*
X439297Y86756D01*
X439201Y86684D01*
X439103Y86615D01*
X439003Y86550D01*
X438901Y86488D01*
X438797Y86429D01*
X438691Y86374D01*
X438583Y86323D01*
X438474Y86275D01*
X438363Y86230D01*
X438251Y86190D01*
X438137Y86153D01*
X438022Y86120D01*
X437907Y86090D01*
X437790Y86065D01*
X437673Y86043D01*
X437554Y86026D01*
X437436Y86012D01*
X437317Y86002D01*
X437197Y85996D01*
X437078Y85994D01*
X447982Y81478D02*
X447982Y93218D01*
X447982Y81478D02*
X447984Y81345D01*
X447990Y81213D01*
X448000Y81081D01*
X448013Y80949D01*
X448031Y80817D01*
X448052Y80687D01*
X448077Y80556D01*
X448106Y80427D01*
X448139Y80299D01*
X448175Y80171D01*
X448215Y80045D01*
X448259Y79920D01*
X448307Y79796D01*
X448358Y79674D01*
X448413Y79553D01*
X448471Y79434D01*
X448533Y79316D01*
X448598Y79201D01*
X448667Y79087D01*
X448738Y78976D01*
X448814Y78867D01*
X448892Y78760D01*
X448973Y78655D01*
X449058Y78553D01*
X449145Y78453D01*
X449235Y78356D01*
X449328Y78261D01*
X449424Y78170D01*
X449522Y78081D01*
X449623Y77995D01*
X449727Y77912D01*
X449833Y77832D01*
X449941Y77756D01*
X450051Y77682D01*
X450164Y77612D01*
X450278Y77545D01*
X450395Y77482D01*
X450513Y77422D01*
X450633Y77365D01*
X450755Y77312D01*
X450878Y77263D01*
X451002Y77217D01*
X451128Y77175D01*
X451255Y77137D01*
X451383Y77102D01*
X451512Y77071D01*
X451641Y77044D01*
X451772Y77021D01*
X451903Y77001D01*
X452035Y76986D01*
X452167Y76974D01*
X452299Y76966D01*
X452432Y76962D01*
X452564Y76962D01*
X452697Y76966D01*
X452829Y76974D01*
X452961Y76986D01*
X453093Y77001D01*
X453224Y77021D01*
X453355Y77044D01*
X453484Y77071D01*
X453613Y77102D01*
X453741Y77137D01*
X453868Y77175D01*
X453994Y77217D01*
X454118Y77263D01*
X454241Y77312D01*
X454363Y77365D01*
X454483Y77422D01*
X454601Y77482D01*
X454718Y77545D01*
X454832Y77612D01*
X454945Y77682D01*
X455055Y77756D01*
X455163Y77832D01*
X455269Y77912D01*
X455373Y77995D01*
X455474Y78081D01*
X455572Y78170D01*
X455668Y78261D01*
X455761Y78356D01*
X455851Y78453D01*
X455938Y78553D01*
X456023Y78655D01*
X456104Y78760D01*
X456182Y78867D01*
X456258Y78976D01*
X456329Y79087D01*
X456398Y79201D01*
X456463Y79316D01*
X456525Y79434D01*
X456583Y79553D01*
X456638Y79674D01*
X456689Y79796D01*
X456737Y79920D01*
X456781Y80045D01*
X456821Y80171D01*
X456857Y80299D01*
X456890Y80427D01*
X456919Y80556D01*
X456944Y80687D01*
X456965Y80817D01*
X456983Y80949D01*
X456996Y81081D01*
X457006Y81213D01*
X457012Y81345D01*
X457014Y81478D01*
X457013Y81478D02*
X457013Y93218D01*
X467708Y76962D02*
X471320Y76962D01*
X467708Y76962D02*
X467590Y76964D01*
X467472Y76970D01*
X467354Y76979D01*
X467237Y76993D01*
X467120Y77010D01*
X467003Y77031D01*
X466888Y77056D01*
X466773Y77085D01*
X466659Y77118D01*
X466547Y77154D01*
X466436Y77194D01*
X466326Y77237D01*
X466217Y77284D01*
X466110Y77334D01*
X466005Y77389D01*
X465902Y77446D01*
X465801Y77507D01*
X465701Y77571D01*
X465604Y77638D01*
X465509Y77708D01*
X465417Y77782D01*
X465326Y77858D01*
X465239Y77938D01*
X465154Y78020D01*
X465072Y78105D01*
X464992Y78192D01*
X464916Y78283D01*
X464842Y78375D01*
X464772Y78470D01*
X464705Y78567D01*
X464641Y78667D01*
X464580Y78768D01*
X464523Y78871D01*
X464468Y78976D01*
X464418Y79083D01*
X464371Y79192D01*
X464328Y79302D01*
X464288Y79413D01*
X464252Y79525D01*
X464219Y79639D01*
X464190Y79754D01*
X464165Y79869D01*
X464144Y79986D01*
X464127Y80103D01*
X464113Y80220D01*
X464104Y80338D01*
X464098Y80456D01*
X464096Y80574D01*
X464095Y80574D02*
X464095Y89606D01*
X464096Y89606D02*
X464098Y89724D01*
X464104Y89842D01*
X464113Y89960D01*
X464127Y90077D01*
X464144Y90194D01*
X464165Y90311D01*
X464190Y90426D01*
X464219Y90541D01*
X464252Y90655D01*
X464288Y90767D01*
X464328Y90878D01*
X464371Y90988D01*
X464418Y91097D01*
X464468Y91204D01*
X464522Y91309D01*
X464580Y91412D01*
X464641Y91513D01*
X464705Y91613D01*
X464772Y91710D01*
X464842Y91805D01*
X464916Y91897D01*
X464992Y91988D01*
X465072Y92075D01*
X465154Y92160D01*
X465239Y92242D01*
X465326Y92322D01*
X465417Y92398D01*
X465509Y92472D01*
X465604Y92542D01*
X465701Y92609D01*
X465801Y92673D01*
X465902Y92734D01*
X466005Y92791D01*
X466110Y92845D01*
X466217Y92896D01*
X466326Y92943D01*
X466436Y92986D01*
X466547Y93026D01*
X466659Y93062D01*
X466773Y93095D01*
X466888Y93124D01*
X467003Y93149D01*
X467120Y93170D01*
X467237Y93187D01*
X467354Y93201D01*
X467472Y93210D01*
X467590Y93216D01*
X467708Y93218D01*
X471320Y93218D01*
X477893Y93218D02*
X477893Y76962D01*
X477893Y83284D02*
X486924Y93218D01*
X481505Y86896D02*
X486924Y76962D01*
X492931Y83284D02*
X503768Y83284D01*
X511239Y85993D02*
X515755Y85993D01*
X515755Y85994D02*
X515888Y85992D01*
X516020Y85986D01*
X516152Y85976D01*
X516284Y85963D01*
X516416Y85945D01*
X516546Y85924D01*
X516677Y85899D01*
X516806Y85870D01*
X516934Y85837D01*
X517062Y85801D01*
X517188Y85761D01*
X517313Y85717D01*
X517437Y85669D01*
X517559Y85618D01*
X517680Y85563D01*
X517799Y85505D01*
X517917Y85443D01*
X518032Y85378D01*
X518146Y85309D01*
X518257Y85238D01*
X518366Y85162D01*
X518473Y85084D01*
X518578Y85003D01*
X518680Y84918D01*
X518780Y84831D01*
X518877Y84741D01*
X518972Y84648D01*
X519063Y84552D01*
X519152Y84454D01*
X519238Y84353D01*
X519321Y84249D01*
X519401Y84143D01*
X519477Y84035D01*
X519551Y83925D01*
X519621Y83812D01*
X519688Y83698D01*
X519751Y83581D01*
X519811Y83463D01*
X519868Y83343D01*
X519921Y83221D01*
X519970Y83098D01*
X520016Y82974D01*
X520058Y82848D01*
X520096Y82721D01*
X520131Y82593D01*
X520162Y82464D01*
X520189Y82335D01*
X520212Y82204D01*
X520232Y82073D01*
X520247Y81941D01*
X520259Y81809D01*
X520267Y81677D01*
X520271Y81544D01*
X520271Y81412D01*
X520267Y81279D01*
X520259Y81147D01*
X520247Y81015D01*
X520232Y80883D01*
X520212Y80752D01*
X520189Y80621D01*
X520162Y80492D01*
X520131Y80363D01*
X520096Y80235D01*
X520058Y80108D01*
X520016Y79982D01*
X519970Y79858D01*
X519921Y79735D01*
X519868Y79613D01*
X519811Y79493D01*
X519751Y79375D01*
X519688Y79258D01*
X519621Y79144D01*
X519551Y79031D01*
X519477Y78921D01*
X519401Y78813D01*
X519321Y78707D01*
X519238Y78603D01*
X519152Y78502D01*
X519063Y78404D01*
X518972Y78308D01*
X518877Y78215D01*
X518780Y78125D01*
X518680Y78038D01*
X518578Y77953D01*
X518473Y77872D01*
X518366Y77794D01*
X518257Y77718D01*
X518146Y77647D01*
X518032Y77578D01*
X517917Y77513D01*
X517799Y77451D01*
X517680Y77393D01*
X517559Y77338D01*
X517437Y77287D01*
X517313Y77239D01*
X517188Y77195D01*
X517062Y77155D01*
X516934Y77119D01*
X516806Y77086D01*
X516677Y77057D01*
X516546Y77032D01*
X516416Y77011D01*
X516284Y76993D01*
X516152Y76980D01*
X516020Y76970D01*
X515888Y76964D01*
X515755Y76962D01*
X511239Y76962D01*
X511239Y93218D01*
X515755Y93218D01*
X515874Y93216D01*
X515994Y93210D01*
X516113Y93200D01*
X516231Y93186D01*
X516350Y93169D01*
X516467Y93147D01*
X516584Y93122D01*
X516699Y93092D01*
X516814Y93059D01*
X516928Y93022D01*
X517040Y92982D01*
X517151Y92937D01*
X517260Y92889D01*
X517368Y92838D01*
X517474Y92783D01*
X517578Y92724D01*
X517680Y92662D01*
X517780Y92597D01*
X517878Y92528D01*
X517974Y92456D01*
X518067Y92381D01*
X518157Y92304D01*
X518245Y92223D01*
X518330Y92139D01*
X518412Y92052D01*
X518492Y91963D01*
X518568Y91871D01*
X518642Y91777D01*
X518712Y91680D01*
X518779Y91582D01*
X518843Y91481D01*
X518903Y91377D01*
X518960Y91272D01*
X519013Y91165D01*
X519063Y91057D01*
X519109Y90947D01*
X519151Y90835D01*
X519190Y90722D01*
X519225Y90608D01*
X519256Y90493D01*
X519284Y90376D01*
X519307Y90259D01*
X519327Y90142D01*
X519343Y90023D01*
X519355Y89904D01*
X519363Y89785D01*
X519367Y89666D01*
X519367Y89546D01*
X519363Y89427D01*
X519355Y89308D01*
X519343Y89189D01*
X519327Y89070D01*
X519307Y88953D01*
X519284Y88836D01*
X519256Y88719D01*
X519225Y88604D01*
X519190Y88490D01*
X519151Y88377D01*
X519109Y88265D01*
X519063Y88155D01*
X519013Y88047D01*
X518960Y87940D01*
X518903Y87835D01*
X518843Y87731D01*
X518779Y87630D01*
X518712Y87532D01*
X518642Y87435D01*
X518568Y87341D01*
X518492Y87249D01*
X518412Y87160D01*
X518330Y87073D01*
X518245Y86989D01*
X518157Y86908D01*
X518067Y86831D01*
X517974Y86756D01*
X517878Y86684D01*
X517780Y86615D01*
X517680Y86550D01*
X517578Y86488D01*
X517474Y86429D01*
X517368Y86374D01*
X517260Y86323D01*
X517151Y86275D01*
X517040Y86230D01*
X516928Y86190D01*
X516814Y86153D01*
X516699Y86120D01*
X516584Y86090D01*
X516467Y86065D01*
X516350Y86043D01*
X516231Y86026D01*
X516113Y86012D01*
X515994Y86002D01*
X515874Y85996D01*
X515755Y85994D01*
X526138Y88702D02*
X526138Y81478D01*
X526138Y88702D02*
X526140Y88835D01*
X526146Y88967D01*
X526156Y89099D01*
X526169Y89231D01*
X526187Y89363D01*
X526208Y89493D01*
X526233Y89624D01*
X526262Y89753D01*
X526295Y89881D01*
X526331Y90009D01*
X526371Y90135D01*
X526415Y90260D01*
X526463Y90384D01*
X526514Y90506D01*
X526569Y90627D01*
X526627Y90746D01*
X526689Y90864D01*
X526754Y90979D01*
X526823Y91093D01*
X526894Y91204D01*
X526970Y91313D01*
X527048Y91420D01*
X527129Y91525D01*
X527214Y91627D01*
X527301Y91727D01*
X527391Y91824D01*
X527484Y91919D01*
X527580Y92010D01*
X527678Y92099D01*
X527779Y92185D01*
X527883Y92268D01*
X527989Y92348D01*
X528097Y92424D01*
X528207Y92498D01*
X528320Y92568D01*
X528434Y92635D01*
X528551Y92698D01*
X528669Y92758D01*
X528789Y92815D01*
X528911Y92868D01*
X529034Y92917D01*
X529158Y92963D01*
X529284Y93005D01*
X529411Y93043D01*
X529539Y93078D01*
X529668Y93109D01*
X529797Y93136D01*
X529928Y93159D01*
X530059Y93179D01*
X530191Y93194D01*
X530323Y93206D01*
X530455Y93214D01*
X530588Y93218D01*
X530720Y93218D01*
X530853Y93214D01*
X530985Y93206D01*
X531117Y93194D01*
X531249Y93179D01*
X531380Y93159D01*
X531511Y93136D01*
X531640Y93109D01*
X531769Y93078D01*
X531897Y93043D01*
X532024Y93005D01*
X532150Y92963D01*
X532274Y92917D01*
X532397Y92868D01*
X532519Y92815D01*
X532639Y92758D01*
X532757Y92698D01*
X532874Y92635D01*
X532988Y92568D01*
X533101Y92498D01*
X533211Y92424D01*
X533319Y92348D01*
X533425Y92268D01*
X533529Y92185D01*
X533630Y92099D01*
X533728Y92010D01*
X533824Y91919D01*
X533917Y91824D01*
X534007Y91727D01*
X534094Y91627D01*
X534179Y91525D01*
X534260Y91420D01*
X534338Y91313D01*
X534414Y91204D01*
X534485Y91093D01*
X534554Y90979D01*
X534619Y90864D01*
X534681Y90746D01*
X534739Y90627D01*
X534794Y90506D01*
X534845Y90384D01*
X534893Y90260D01*
X534937Y90135D01*
X534977Y90009D01*
X535013Y89881D01*
X535046Y89753D01*
X535075Y89624D01*
X535100Y89493D01*
X535121Y89363D01*
X535139Y89231D01*
X535152Y89099D01*
X535162Y88967D01*
X535168Y88835D01*
X535170Y88702D01*
X535170Y81478D01*
X535168Y81345D01*
X535162Y81213D01*
X535152Y81081D01*
X535139Y80949D01*
X535121Y80817D01*
X535100Y80687D01*
X535075Y80556D01*
X535046Y80427D01*
X535013Y80299D01*
X534977Y80171D01*
X534937Y80045D01*
X534893Y79920D01*
X534845Y79796D01*
X534794Y79674D01*
X534739Y79553D01*
X534681Y79434D01*
X534619Y79316D01*
X534554Y79201D01*
X534485Y79087D01*
X534414Y78976D01*
X534338Y78867D01*
X534260Y78760D01*
X534179Y78655D01*
X534094Y78553D01*
X534007Y78453D01*
X533917Y78356D01*
X533824Y78261D01*
X533728Y78170D01*
X533630Y78081D01*
X533529Y77995D01*
X533425Y77912D01*
X533319Y77832D01*
X533211Y77756D01*
X533101Y77682D01*
X532988Y77612D01*
X532874Y77545D01*
X532757Y77482D01*
X532639Y77422D01*
X532519Y77365D01*
X532397Y77312D01*
X532274Y77263D01*
X532150Y77217D01*
X532024Y77175D01*
X531897Y77137D01*
X531769Y77102D01*
X531640Y77071D01*
X531511Y77044D01*
X531380Y77021D01*
X531249Y77001D01*
X531117Y76986D01*
X530985Y76974D01*
X530853Y76966D01*
X530720Y76962D01*
X530588Y76962D01*
X530455Y76966D01*
X530323Y76974D01*
X530191Y76986D01*
X530059Y77001D01*
X529928Y77021D01*
X529797Y77044D01*
X529668Y77071D01*
X529539Y77102D01*
X529411Y77137D01*
X529284Y77175D01*
X529158Y77217D01*
X529034Y77263D01*
X528911Y77312D01*
X528789Y77365D01*
X528669Y77422D01*
X528551Y77482D01*
X528434Y77545D01*
X528320Y77612D01*
X528207Y77682D01*
X528097Y77756D01*
X527989Y77832D01*
X527883Y77912D01*
X527779Y77995D01*
X527678Y78081D01*
X527580Y78170D01*
X527484Y78261D01*
X527391Y78356D01*
X527301Y78453D01*
X527214Y78553D01*
X527129Y78655D01*
X527048Y78760D01*
X526970Y78867D01*
X526894Y78976D01*
X526823Y79087D01*
X526754Y79201D01*
X526689Y79316D01*
X526627Y79434D01*
X526569Y79553D01*
X526514Y79674D01*
X526463Y79796D01*
X526415Y79920D01*
X526371Y80045D01*
X526331Y80171D01*
X526295Y80299D01*
X526262Y80427D01*
X526233Y80556D01*
X526208Y80687D01*
X526187Y80817D01*
X526169Y80949D01*
X526156Y81081D01*
X526146Y81213D01*
X526140Y81345D01*
X526138Y81478D01*
X541770Y81478D02*
X541770Y88702D01*
X541769Y88702D02*
X541771Y88835D01*
X541777Y88967D01*
X541787Y89099D01*
X541800Y89231D01*
X541818Y89363D01*
X541839Y89493D01*
X541864Y89624D01*
X541893Y89753D01*
X541926Y89881D01*
X541962Y90009D01*
X542002Y90135D01*
X542046Y90260D01*
X542094Y90384D01*
X542145Y90506D01*
X542200Y90627D01*
X542258Y90746D01*
X542320Y90864D01*
X542385Y90979D01*
X542454Y91093D01*
X542525Y91204D01*
X542601Y91313D01*
X542679Y91420D01*
X542760Y91525D01*
X542845Y91627D01*
X542932Y91727D01*
X543022Y91824D01*
X543115Y91919D01*
X543211Y92010D01*
X543309Y92099D01*
X543410Y92185D01*
X543514Y92268D01*
X543620Y92348D01*
X543728Y92424D01*
X543838Y92498D01*
X543951Y92568D01*
X544065Y92635D01*
X544182Y92698D01*
X544300Y92758D01*
X544420Y92815D01*
X544542Y92868D01*
X544665Y92917D01*
X544789Y92963D01*
X544915Y93005D01*
X545042Y93043D01*
X545170Y93078D01*
X545299Y93109D01*
X545428Y93136D01*
X545559Y93159D01*
X545690Y93179D01*
X545822Y93194D01*
X545954Y93206D01*
X546086Y93214D01*
X546219Y93218D01*
X546351Y93218D01*
X546484Y93214D01*
X546616Y93206D01*
X546748Y93194D01*
X546880Y93179D01*
X547011Y93159D01*
X547142Y93136D01*
X547271Y93109D01*
X547400Y93078D01*
X547528Y93043D01*
X547655Y93005D01*
X547781Y92963D01*
X547905Y92917D01*
X548028Y92868D01*
X548150Y92815D01*
X548270Y92758D01*
X548388Y92698D01*
X548505Y92635D01*
X548619Y92568D01*
X548732Y92498D01*
X548842Y92424D01*
X548950Y92348D01*
X549056Y92268D01*
X549160Y92185D01*
X549261Y92099D01*
X549359Y92010D01*
X549455Y91919D01*
X549548Y91824D01*
X549638Y91727D01*
X549725Y91627D01*
X549810Y91525D01*
X549891Y91420D01*
X549969Y91313D01*
X550045Y91204D01*
X550116Y91093D01*
X550185Y90979D01*
X550250Y90864D01*
X550312Y90746D01*
X550370Y90627D01*
X550425Y90506D01*
X550476Y90384D01*
X550524Y90260D01*
X550568Y90135D01*
X550608Y90009D01*
X550644Y89881D01*
X550677Y89753D01*
X550706Y89624D01*
X550731Y89493D01*
X550752Y89363D01*
X550770Y89231D01*
X550783Y89099D01*
X550793Y88967D01*
X550799Y88835D01*
X550801Y88702D01*
X550801Y81478D01*
X550799Y81345D01*
X550793Y81213D01*
X550783Y81081D01*
X550770Y80949D01*
X550752Y80817D01*
X550731Y80687D01*
X550706Y80556D01*
X550677Y80427D01*
X550644Y80299D01*
X550608Y80171D01*
X550568Y80045D01*
X550524Y79920D01*
X550476Y79796D01*
X550425Y79674D01*
X550370Y79553D01*
X550312Y79434D01*
X550250Y79316D01*
X550185Y79201D01*
X550116Y79087D01*
X550045Y78976D01*
X549969Y78867D01*
X549891Y78760D01*
X549810Y78655D01*
X549725Y78553D01*
X549638Y78453D01*
X549548Y78356D01*
X549455Y78261D01*
X549359Y78170D01*
X549261Y78081D01*
X549160Y77995D01*
X549056Y77912D01*
X548950Y77832D01*
X548842Y77756D01*
X548732Y77682D01*
X548619Y77612D01*
X548505Y77545D01*
X548388Y77482D01*
X548270Y77422D01*
X548150Y77365D01*
X548028Y77312D01*
X547905Y77263D01*
X547781Y77217D01*
X547655Y77175D01*
X547528Y77137D01*
X547400Y77102D01*
X547271Y77071D01*
X547142Y77044D01*
X547011Y77021D01*
X546880Y77001D01*
X546748Y76986D01*
X546616Y76974D01*
X546484Y76966D01*
X546351Y76962D01*
X546219Y76962D01*
X546086Y76966D01*
X545954Y76974D01*
X545822Y76986D01*
X545690Y77001D01*
X545559Y77021D01*
X545428Y77044D01*
X545299Y77071D01*
X545170Y77102D01*
X545042Y77137D01*
X544915Y77175D01*
X544789Y77217D01*
X544665Y77263D01*
X544542Y77312D01*
X544420Y77365D01*
X544300Y77422D01*
X544182Y77482D01*
X544065Y77545D01*
X543951Y77612D01*
X543838Y77682D01*
X543728Y77756D01*
X543620Y77832D01*
X543514Y77912D01*
X543410Y77995D01*
X543309Y78081D01*
X543211Y78170D01*
X543115Y78261D01*
X543022Y78356D01*
X542932Y78453D01*
X542845Y78553D01*
X542760Y78655D01*
X542679Y78760D01*
X542601Y78867D01*
X542525Y78976D01*
X542454Y79087D01*
X542385Y79201D01*
X542320Y79316D01*
X542258Y79434D01*
X542200Y79553D01*
X542145Y79674D01*
X542094Y79796D01*
X542046Y79920D01*
X542002Y80045D01*
X541962Y80171D01*
X541926Y80299D01*
X541893Y80427D01*
X541864Y80556D01*
X541839Y80687D01*
X541818Y80817D01*
X541800Y80949D01*
X541787Y81081D01*
X541777Y81213D01*
X541771Y81345D01*
X541769Y81478D01*
X562299Y76962D02*
X562417Y76964D01*
X562535Y76970D01*
X562653Y76979D01*
X562770Y76993D01*
X562887Y77010D01*
X563004Y77031D01*
X563119Y77056D01*
X563234Y77085D01*
X563348Y77118D01*
X563460Y77154D01*
X563571Y77194D01*
X563681Y77237D01*
X563790Y77284D01*
X563897Y77334D01*
X564002Y77389D01*
X564105Y77446D01*
X564206Y77507D01*
X564306Y77571D01*
X564403Y77638D01*
X564498Y77708D01*
X564590Y77782D01*
X564681Y77858D01*
X564768Y77938D01*
X564853Y78020D01*
X564935Y78105D01*
X565015Y78192D01*
X565091Y78283D01*
X565165Y78375D01*
X565235Y78470D01*
X565302Y78567D01*
X565366Y78667D01*
X565427Y78768D01*
X565484Y78871D01*
X565539Y78976D01*
X565589Y79083D01*
X565636Y79192D01*
X565679Y79302D01*
X565719Y79413D01*
X565755Y79525D01*
X565788Y79639D01*
X565817Y79754D01*
X565842Y79869D01*
X565863Y79986D01*
X565880Y80103D01*
X565894Y80220D01*
X565903Y80338D01*
X565909Y80456D01*
X565911Y80574D01*
X562299Y76962D02*
X562116Y76964D01*
X561934Y76971D01*
X561752Y76982D01*
X561570Y76997D01*
X561388Y77017D01*
X561207Y77040D01*
X561027Y77069D01*
X560847Y77101D01*
X560668Y77138D01*
X560491Y77179D01*
X560314Y77225D01*
X560138Y77274D01*
X559964Y77328D01*
X559790Y77386D01*
X559619Y77448D01*
X559449Y77514D01*
X559280Y77585D01*
X559113Y77659D01*
X558948Y77737D01*
X558785Y77819D01*
X558624Y77905D01*
X558465Y77995D01*
X558308Y78089D01*
X558154Y78186D01*
X558002Y78287D01*
X557852Y78392D01*
X557705Y78500D01*
X557561Y78611D01*
X557419Y78726D01*
X557280Y78845D01*
X557144Y78967D01*
X557011Y79092D01*
X556881Y79220D01*
X557332Y89606D02*
X557334Y89724D01*
X557340Y89842D01*
X557349Y89960D01*
X557363Y90077D01*
X557380Y90194D01*
X557401Y90311D01*
X557426Y90426D01*
X557455Y90541D01*
X557488Y90655D01*
X557524Y90767D01*
X557564Y90878D01*
X557607Y90988D01*
X557654Y91097D01*
X557704Y91204D01*
X557759Y91309D01*
X557816Y91412D01*
X557877Y91513D01*
X557941Y91613D01*
X558008Y91710D01*
X558078Y91805D01*
X558152Y91897D01*
X558228Y91988D01*
X558308Y92075D01*
X558390Y92160D01*
X558475Y92242D01*
X558562Y92322D01*
X558653Y92398D01*
X558745Y92472D01*
X558840Y92542D01*
X558937Y92609D01*
X559037Y92673D01*
X559138Y92734D01*
X559241Y92792D01*
X559346Y92846D01*
X559453Y92896D01*
X559562Y92943D01*
X559672Y92987D01*
X559783Y93026D01*
X559896Y93062D01*
X560009Y93095D01*
X560124Y93124D01*
X560239Y93149D01*
X560356Y93170D01*
X560473Y93187D01*
X560590Y93201D01*
X560708Y93210D01*
X560826Y93216D01*
X560944Y93218D01*
X561105Y93216D01*
X561267Y93210D01*
X561428Y93201D01*
X561589Y93187D01*
X561749Y93170D01*
X561909Y93149D01*
X562069Y93124D01*
X562228Y93095D01*
X562386Y93063D01*
X562543Y93027D01*
X562699Y92987D01*
X562855Y92943D01*
X563009Y92895D01*
X563162Y92844D01*
X563314Y92790D01*
X563465Y92731D01*
X563614Y92670D01*
X563761Y92604D01*
X563907Y92535D01*
X564052Y92463D01*
X564194Y92387D01*
X564335Y92308D01*
X564474Y92226D01*
X564610Y92140D01*
X564745Y92051D01*
X564878Y91959D01*
X565008Y91863D01*
X559137Y86445D02*
X559036Y86507D01*
X558936Y86572D01*
X558839Y86641D01*
X558744Y86713D01*
X558651Y86787D01*
X558561Y86865D01*
X558473Y86946D01*
X558388Y87029D01*
X558306Y87115D01*
X558227Y87204D01*
X558150Y87295D01*
X558077Y87389D01*
X558006Y87485D01*
X557939Y87583D01*
X557875Y87683D01*
X557814Y87786D01*
X557757Y87890D01*
X557703Y87996D01*
X557653Y88104D01*
X557606Y88213D01*
X557562Y88324D01*
X557522Y88436D01*
X557486Y88550D01*
X557454Y88664D01*
X557425Y88780D01*
X557400Y88896D01*
X557379Y89013D01*
X557362Y89131D01*
X557348Y89249D01*
X557339Y89368D01*
X557333Y89487D01*
X557331Y89606D01*
X564105Y83735D02*
X564206Y83673D01*
X564306Y83608D01*
X564403Y83539D01*
X564498Y83467D01*
X564591Y83393D01*
X564681Y83315D01*
X564769Y83234D01*
X564854Y83151D01*
X564936Y83065D01*
X565015Y82976D01*
X565092Y82885D01*
X565165Y82791D01*
X565236Y82695D01*
X565303Y82597D01*
X565367Y82497D01*
X565428Y82394D01*
X565485Y82290D01*
X565539Y82184D01*
X565589Y82076D01*
X565636Y81967D01*
X565680Y81856D01*
X565720Y81744D01*
X565756Y81630D01*
X565788Y81516D01*
X565817Y81400D01*
X565842Y81284D01*
X565863Y81167D01*
X565880Y81049D01*
X565894Y80931D01*
X565903Y80812D01*
X565909Y80693D01*
X565911Y80574D01*
X564105Y83735D02*
X559138Y86445D01*
X575464Y93218D02*
X575464Y76962D01*
X570948Y93218D02*
X579979Y93218D01*
X597447Y76962D02*
X601059Y76962D01*
X597447Y76962D02*
X597329Y76964D01*
X597211Y76970D01*
X597093Y76979D01*
X596976Y76993D01*
X596859Y77010D01*
X596742Y77031D01*
X596627Y77056D01*
X596512Y77085D01*
X596398Y77118D01*
X596286Y77154D01*
X596175Y77194D01*
X596065Y77237D01*
X595956Y77284D01*
X595849Y77334D01*
X595744Y77389D01*
X595641Y77446D01*
X595540Y77507D01*
X595440Y77571D01*
X595343Y77638D01*
X595248Y77708D01*
X595156Y77782D01*
X595065Y77858D01*
X594978Y77938D01*
X594893Y78020D01*
X594811Y78105D01*
X594731Y78192D01*
X594655Y78283D01*
X594581Y78375D01*
X594511Y78470D01*
X594444Y78567D01*
X594380Y78667D01*
X594319Y78768D01*
X594262Y78871D01*
X594207Y78976D01*
X594157Y79083D01*
X594110Y79192D01*
X594067Y79302D01*
X594027Y79413D01*
X593991Y79525D01*
X593958Y79639D01*
X593929Y79754D01*
X593904Y79869D01*
X593883Y79986D01*
X593866Y80103D01*
X593852Y80220D01*
X593843Y80338D01*
X593837Y80456D01*
X593835Y80574D01*
X593834Y80574D02*
X593834Y89606D01*
X593835Y89606D02*
X593837Y89724D01*
X593843Y89842D01*
X593852Y89960D01*
X593866Y90077D01*
X593883Y90194D01*
X593904Y90311D01*
X593929Y90426D01*
X593958Y90541D01*
X593991Y90655D01*
X594027Y90767D01*
X594067Y90878D01*
X594110Y90988D01*
X594157Y91097D01*
X594207Y91204D01*
X594261Y91309D01*
X594319Y91412D01*
X594380Y91513D01*
X594444Y91613D01*
X594511Y91710D01*
X594581Y91805D01*
X594655Y91897D01*
X594731Y91988D01*
X594811Y92075D01*
X594893Y92160D01*
X594978Y92242D01*
X595065Y92322D01*
X595156Y92398D01*
X595248Y92472D01*
X595343Y92542D01*
X595440Y92609D01*
X595540Y92673D01*
X595641Y92734D01*
X595744Y92791D01*
X595849Y92845D01*
X595956Y92896D01*
X596065Y92943D01*
X596175Y92986D01*
X596286Y93026D01*
X596398Y93062D01*
X596512Y93095D01*
X596627Y93124D01*
X596742Y93149D01*
X596859Y93170D01*
X596976Y93187D01*
X597093Y93201D01*
X597211Y93210D01*
X597329Y93216D01*
X597447Y93218D01*
X601059Y93218D01*
X606900Y88702D02*
X606900Y81478D01*
X606899Y88702D02*
X606901Y88835D01*
X606907Y88967D01*
X606917Y89099D01*
X606930Y89231D01*
X606948Y89363D01*
X606969Y89493D01*
X606994Y89624D01*
X607023Y89753D01*
X607056Y89881D01*
X607092Y90009D01*
X607132Y90135D01*
X607176Y90260D01*
X607224Y90384D01*
X607275Y90506D01*
X607330Y90627D01*
X607388Y90746D01*
X607450Y90864D01*
X607515Y90979D01*
X607584Y91093D01*
X607655Y91204D01*
X607731Y91313D01*
X607809Y91420D01*
X607890Y91525D01*
X607975Y91627D01*
X608062Y91727D01*
X608152Y91824D01*
X608245Y91919D01*
X608341Y92010D01*
X608439Y92099D01*
X608540Y92185D01*
X608644Y92268D01*
X608750Y92348D01*
X608858Y92424D01*
X608968Y92498D01*
X609081Y92568D01*
X609195Y92635D01*
X609312Y92698D01*
X609430Y92758D01*
X609550Y92815D01*
X609672Y92868D01*
X609795Y92917D01*
X609919Y92963D01*
X610045Y93005D01*
X610172Y93043D01*
X610300Y93078D01*
X610429Y93109D01*
X610558Y93136D01*
X610689Y93159D01*
X610820Y93179D01*
X610952Y93194D01*
X611084Y93206D01*
X611216Y93214D01*
X611349Y93218D01*
X611481Y93218D01*
X611614Y93214D01*
X611746Y93206D01*
X611878Y93194D01*
X612010Y93179D01*
X612141Y93159D01*
X612272Y93136D01*
X612401Y93109D01*
X612530Y93078D01*
X612658Y93043D01*
X612785Y93005D01*
X612911Y92963D01*
X613035Y92917D01*
X613158Y92868D01*
X613280Y92815D01*
X613400Y92758D01*
X613518Y92698D01*
X613635Y92635D01*
X613749Y92568D01*
X613862Y92498D01*
X613972Y92424D01*
X614080Y92348D01*
X614186Y92268D01*
X614290Y92185D01*
X614391Y92099D01*
X614489Y92010D01*
X614585Y91919D01*
X614678Y91824D01*
X614768Y91727D01*
X614855Y91627D01*
X614940Y91525D01*
X615021Y91420D01*
X615099Y91313D01*
X615175Y91204D01*
X615246Y91093D01*
X615315Y90979D01*
X615380Y90864D01*
X615442Y90746D01*
X615500Y90627D01*
X615555Y90506D01*
X615606Y90384D01*
X615654Y90260D01*
X615698Y90135D01*
X615738Y90009D01*
X615774Y89881D01*
X615807Y89753D01*
X615836Y89624D01*
X615861Y89493D01*
X615882Y89363D01*
X615900Y89231D01*
X615913Y89099D01*
X615923Y88967D01*
X615929Y88835D01*
X615931Y88702D01*
X615931Y81478D01*
X615929Y81345D01*
X615923Y81213D01*
X615913Y81081D01*
X615900Y80949D01*
X615882Y80817D01*
X615861Y80687D01*
X615836Y80556D01*
X615807Y80427D01*
X615774Y80299D01*
X615738Y80171D01*
X615698Y80045D01*
X615654Y79920D01*
X615606Y79796D01*
X615555Y79674D01*
X615500Y79553D01*
X615442Y79434D01*
X615380Y79316D01*
X615315Y79201D01*
X615246Y79087D01*
X615175Y78976D01*
X615099Y78867D01*
X615021Y78760D01*
X614940Y78655D01*
X614855Y78553D01*
X614768Y78453D01*
X614678Y78356D01*
X614585Y78261D01*
X614489Y78170D01*
X614391Y78081D01*
X614290Y77995D01*
X614186Y77912D01*
X614080Y77832D01*
X613972Y77756D01*
X613862Y77682D01*
X613749Y77612D01*
X613635Y77545D01*
X613518Y77482D01*
X613400Y77422D01*
X613280Y77365D01*
X613158Y77312D01*
X613035Y77263D01*
X612911Y77217D01*
X612785Y77175D01*
X612658Y77137D01*
X612530Y77102D01*
X612401Y77071D01*
X612272Y77044D01*
X612141Y77021D01*
X612010Y77001D01*
X611878Y76986D01*
X611746Y76974D01*
X611614Y76966D01*
X611481Y76962D01*
X611349Y76962D01*
X611216Y76966D01*
X611084Y76974D01*
X610952Y76986D01*
X610820Y77001D01*
X610689Y77021D01*
X610558Y77044D01*
X610429Y77071D01*
X610300Y77102D01*
X610172Y77137D01*
X610045Y77175D01*
X609919Y77217D01*
X609795Y77263D01*
X609672Y77312D01*
X609550Y77365D01*
X609430Y77422D01*
X609312Y77482D01*
X609195Y77545D01*
X609081Y77612D01*
X608968Y77682D01*
X608858Y77756D01*
X608750Y77832D01*
X608644Y77912D01*
X608540Y77995D01*
X608439Y78081D01*
X608341Y78170D01*
X608245Y78261D01*
X608152Y78356D01*
X608062Y78453D01*
X607975Y78553D01*
X607890Y78655D01*
X607809Y78760D01*
X607731Y78867D01*
X607655Y78976D01*
X607584Y79087D01*
X607515Y79201D01*
X607450Y79316D01*
X607388Y79434D01*
X607330Y79553D01*
X607275Y79674D01*
X607224Y79796D01*
X607176Y79920D01*
X607132Y80045D01*
X607092Y80171D01*
X607056Y80299D01*
X607023Y80427D01*
X606994Y80556D01*
X606969Y80687D01*
X606948Y80817D01*
X606930Y80949D01*
X606917Y81081D01*
X606907Y81213D01*
X606901Y81345D01*
X606899Y81478D01*
X623052Y76962D02*
X623052Y93218D01*
X632083Y76962D01*
X632083Y93218D01*
X638301Y93218D02*
X643720Y76962D01*
X649139Y93218D01*
X655386Y76962D02*
X662611Y76962D01*
X655386Y76962D02*
X655386Y93218D01*
X662611Y93218D01*
X660805Y85993D02*
X655386Y85993D01*
X668995Y93218D02*
X668995Y76962D01*
X668995Y93218D02*
X673511Y93218D01*
X673644Y93216D01*
X673776Y93210D01*
X673908Y93200D01*
X674040Y93187D01*
X674172Y93169D01*
X674302Y93148D01*
X674433Y93123D01*
X674562Y93094D01*
X674690Y93061D01*
X674818Y93025D01*
X674944Y92985D01*
X675069Y92941D01*
X675193Y92893D01*
X675315Y92842D01*
X675436Y92787D01*
X675555Y92729D01*
X675673Y92667D01*
X675788Y92602D01*
X675902Y92533D01*
X676013Y92462D01*
X676122Y92386D01*
X676229Y92308D01*
X676334Y92227D01*
X676436Y92142D01*
X676536Y92055D01*
X676633Y91965D01*
X676728Y91872D01*
X676819Y91776D01*
X676908Y91678D01*
X676994Y91577D01*
X677077Y91473D01*
X677157Y91367D01*
X677233Y91259D01*
X677307Y91149D01*
X677377Y91036D01*
X677444Y90922D01*
X677507Y90805D01*
X677567Y90687D01*
X677624Y90567D01*
X677677Y90445D01*
X677726Y90322D01*
X677772Y90198D01*
X677814Y90072D01*
X677852Y89945D01*
X677887Y89817D01*
X677918Y89688D01*
X677945Y89559D01*
X677968Y89428D01*
X677988Y89297D01*
X678003Y89165D01*
X678015Y89033D01*
X678023Y88901D01*
X678027Y88768D01*
X678027Y88636D01*
X678023Y88503D01*
X678015Y88371D01*
X678003Y88239D01*
X677988Y88107D01*
X677968Y87976D01*
X677945Y87845D01*
X677918Y87716D01*
X677887Y87587D01*
X677852Y87459D01*
X677814Y87332D01*
X677772Y87206D01*
X677726Y87082D01*
X677677Y86959D01*
X677624Y86837D01*
X677567Y86717D01*
X677507Y86599D01*
X677444Y86482D01*
X677377Y86368D01*
X677307Y86255D01*
X677233Y86145D01*
X677157Y86037D01*
X677077Y85931D01*
X676994Y85827D01*
X676908Y85726D01*
X676819Y85628D01*
X676728Y85532D01*
X676633Y85439D01*
X676536Y85349D01*
X676436Y85262D01*
X676334Y85177D01*
X676229Y85096D01*
X676122Y85018D01*
X676013Y84942D01*
X675902Y84871D01*
X675788Y84802D01*
X675673Y84737D01*
X675555Y84675D01*
X675436Y84617D01*
X675315Y84562D01*
X675193Y84511D01*
X675069Y84463D01*
X674944Y84419D01*
X674818Y84379D01*
X674690Y84343D01*
X674562Y84310D01*
X674433Y84281D01*
X674302Y84256D01*
X674172Y84235D01*
X674040Y84217D01*
X673908Y84204D01*
X673776Y84194D01*
X673644Y84188D01*
X673511Y84186D01*
X673511Y84187D02*
X668995Y84187D01*
X674414Y84187D02*
X678026Y76962D01*
X688008Y76962D02*
X688008Y93218D01*
X683493Y93218D02*
X692524Y93218D01*
X698633Y76962D02*
X705858Y76962D01*
X698633Y76962D02*
X698633Y93218D01*
X705858Y93218D01*
X704052Y85993D02*
X698633Y85993D01*
X712242Y93218D02*
X712242Y76962D01*
X712242Y93218D02*
X716757Y93218D01*
X716890Y93216D01*
X717022Y93210D01*
X717154Y93200D01*
X717286Y93187D01*
X717418Y93169D01*
X717548Y93148D01*
X717679Y93123D01*
X717808Y93094D01*
X717936Y93061D01*
X718064Y93025D01*
X718190Y92985D01*
X718315Y92941D01*
X718439Y92893D01*
X718561Y92842D01*
X718682Y92787D01*
X718801Y92729D01*
X718919Y92667D01*
X719034Y92602D01*
X719148Y92533D01*
X719259Y92462D01*
X719368Y92386D01*
X719475Y92308D01*
X719580Y92227D01*
X719682Y92142D01*
X719782Y92055D01*
X719879Y91965D01*
X719974Y91872D01*
X720065Y91776D01*
X720154Y91678D01*
X720240Y91577D01*
X720323Y91473D01*
X720403Y91367D01*
X720479Y91259D01*
X720553Y91149D01*
X720623Y91036D01*
X720690Y90922D01*
X720753Y90805D01*
X720813Y90687D01*
X720870Y90567D01*
X720923Y90445D01*
X720972Y90322D01*
X721018Y90198D01*
X721060Y90072D01*
X721098Y89945D01*
X721133Y89817D01*
X721164Y89688D01*
X721191Y89559D01*
X721214Y89428D01*
X721234Y89297D01*
X721249Y89165D01*
X721261Y89033D01*
X721269Y88901D01*
X721273Y88768D01*
X721273Y88636D01*
X721269Y88503D01*
X721261Y88371D01*
X721249Y88239D01*
X721234Y88107D01*
X721214Y87976D01*
X721191Y87845D01*
X721164Y87716D01*
X721133Y87587D01*
X721098Y87459D01*
X721060Y87332D01*
X721018Y87206D01*
X720972Y87082D01*
X720923Y86959D01*
X720870Y86837D01*
X720813Y86717D01*
X720753Y86599D01*
X720690Y86482D01*
X720623Y86368D01*
X720553Y86255D01*
X720479Y86145D01*
X720403Y86037D01*
X720323Y85931D01*
X720240Y85827D01*
X720154Y85726D01*
X720065Y85628D01*
X719974Y85532D01*
X719879Y85439D01*
X719782Y85349D01*
X719682Y85262D01*
X719580Y85177D01*
X719475Y85096D01*
X719368Y85018D01*
X719259Y84942D01*
X719148Y84871D01*
X719034Y84802D01*
X718919Y84737D01*
X718801Y84675D01*
X718682Y84617D01*
X718561Y84562D01*
X718439Y84511D01*
X718315Y84463D01*
X718190Y84419D01*
X718064Y84379D01*
X717936Y84343D01*
X717808Y84310D01*
X717679Y84281D01*
X717548Y84256D01*
X717418Y84235D01*
X717286Y84217D01*
X717154Y84204D01*
X717022Y84194D01*
X716890Y84188D01*
X716757Y84186D01*
X716757Y84187D02*
X712242Y84187D01*
X717660Y84187D02*
X721273Y76962D01*
D11*
X660400Y508000D03*
X736600Y508000D03*
D12*
X355600Y469900D03*
X381000Y469900D03*
X279400Y469900D03*
X304800Y469900D03*
X203200Y469900D03*
X228600Y469900D03*
X127000Y469900D03*
X152400Y469900D03*
X50800Y469900D03*
X76200Y469900D03*
D11*
X749300Y762000D03*
X825500Y762000D03*
D13*
X179750Y520700D03*
D14*
X74250Y520700D03*
D15*
X310896Y520700D02*
X324104Y520700D01*
X247904Y520700D02*
X234696Y520700D01*
X679196Y762000D02*
X692404Y762000D01*
X616204Y762000D02*
X602996Y762000D01*
D16*
X546100Y469900D03*
X444500Y469900D03*
D17*
X485300Y228600D03*
D18*
X378300Y228600D03*
D19*
X914400Y522161D02*
X914400Y544640D01*
X914400Y392240D02*
X914400Y369761D01*
D20*
X482600Y711200D03*
X876300Y596900D03*
X914400Y736600D03*
X482600Y596900D03*
X762000Y355600D03*
X635000Y355600D03*
D15*
X304800Y349504D02*
X304800Y336296D01*
X330200Y336296D02*
X330200Y349504D01*
X457200Y349504D02*
X457200Y336296D01*
X457200Y412496D02*
X457200Y425704D01*
X355600Y349504D02*
X355600Y336296D01*
X381000Y336296D02*
X381000Y349504D01*
X431800Y349504D02*
X431800Y336296D01*
X406400Y336296D02*
X406400Y349504D01*
X431800Y412496D02*
X431800Y425704D01*
X406400Y425704D02*
X406400Y412496D01*
X381000Y412496D02*
X381000Y425704D01*
X355600Y425704D02*
X355600Y412496D01*
X330200Y412496D02*
X330200Y425704D01*
X304800Y425704D02*
X304800Y412496D01*
X50800Y349504D02*
X50800Y336296D01*
X76200Y336296D02*
X76200Y349504D01*
X203200Y349504D02*
X203200Y336296D01*
X203200Y412496D02*
X203200Y425704D01*
X101600Y349504D02*
X101600Y336296D01*
X127000Y336296D02*
X127000Y349504D01*
X177800Y349504D02*
X177800Y336296D01*
X152400Y336296D02*
X152400Y349504D01*
X177800Y412496D02*
X177800Y425704D01*
X152400Y425704D02*
X152400Y412496D01*
X127000Y412496D02*
X127000Y425704D01*
X101600Y425704D02*
X101600Y412496D01*
X76200Y412496D02*
X76200Y425704D01*
X50800Y425704D02*
X50800Y412496D01*
D21*
X584200Y627380D02*
X584200Y642620D01*
X609600Y642620D02*
X609600Y627380D01*
X635000Y627380D02*
X635000Y642620D01*
D12*
X50800Y762000D03*
X127000Y762000D03*
D22*
X241300Y762000D03*
X165100Y762000D03*
X355600Y762000D03*
X279400Y762000D03*
D12*
X279400Y723900D03*
X355600Y723900D03*
X279400Y685800D03*
X355600Y685800D03*
X279400Y647700D03*
X355600Y647700D03*
X279400Y609600D03*
X355600Y609600D03*
X279400Y571500D03*
X355600Y571500D03*
D22*
X241300Y571500D03*
X165100Y571500D03*
X127000Y571500D03*
X50800Y571500D03*
D12*
X609600Y711200D03*
X685800Y711200D03*
X50800Y723900D03*
X127000Y723900D03*
X495300Y508000D03*
X571500Y508000D03*
X393700Y508000D03*
X469900Y508000D03*
D22*
X127000Y685800D03*
X50800Y685800D03*
X127000Y647700D03*
X50800Y647700D03*
D12*
X50800Y609600D03*
X127000Y609600D03*
X165100Y609600D03*
X241300Y609600D03*
X165100Y647700D03*
X241300Y647700D03*
D22*
X241300Y685800D03*
X165100Y685800D03*
D12*
X165100Y723900D03*
X241300Y723900D03*
D23*
X127000Y228600D03*
D16*
X152400Y228600D03*
X177800Y228600D03*
X203200Y228600D03*
X228600Y228600D03*
X254000Y228600D03*
X279400Y228600D03*
X279400Y304800D03*
X254000Y304800D03*
X228600Y304800D03*
X203200Y304800D03*
X177800Y304800D03*
X152400Y304800D03*
X127000Y304800D03*
D24*
X76962Y111506D02*
X76962Y91694D01*
X127000Y91694D02*
X127000Y111506D01*
X177038Y111506D02*
X177038Y91694D01*
X228854Y91694D02*
X228854Y111506D01*
X278892Y111506D02*
X278892Y91694D01*
X330454Y91694D02*
X330454Y111506D01*
X380492Y111506D02*
X380492Y91694D01*
X813054Y91694D02*
X813054Y111506D01*
X863092Y111506D02*
X863092Y91694D01*
D10*
X381000Y342900D02*
X377952Y342900D01*
X265176Y230124D01*
X265176Y224028D01*
X259080Y217932D01*
X242316Y217932D01*
X76200Y175260D02*
X76200Y102108D01*
X76200Y175260D02*
X60960Y190500D01*
X60960Y460248D01*
X51816Y469392D01*
X76200Y102108D02*
X76962Y101600D01*
X51816Y469392D02*
X50800Y469900D01*
X121920Y342900D02*
X127000Y342900D01*
X121920Y342900D02*
X105156Y326136D01*
X99060Y326136D01*
X85344Y339852D01*
X85344Y509016D01*
X74676Y519684D01*
X74250Y520700D01*
D25*
X242316Y217932D03*
D10*
X355092Y342900D02*
X237744Y460248D01*
X355092Y342900D02*
X355600Y342900D01*
D25*
X237744Y460248D03*
D10*
X128016Y685800D02*
X128016Y711708D01*
X137160Y720852D01*
X137160Y752856D01*
X128016Y762000D01*
X128016Y685800D02*
X127000Y685800D01*
X127000Y762000D02*
X128016Y762000D01*
X329184Y356616D02*
X329184Y342900D01*
X329184Y356616D02*
X193548Y492252D01*
X329184Y342900D02*
X330200Y342900D01*
D25*
X193548Y492252D03*
D10*
X51816Y609600D02*
X51816Y635508D01*
X60960Y644652D01*
X60960Y676656D01*
X51816Y685800D01*
X51816Y609600D02*
X50800Y609600D01*
X50800Y685800D02*
X51816Y685800D01*
X301752Y568452D02*
X301752Y539496D01*
X301752Y568452D02*
X249936Y620268D01*
X249936Y643128D01*
X251460Y644652D01*
X251460Y676656D01*
X242316Y685800D01*
X241300Y685800D01*
X50292Y609600D02*
X50292Y583692D01*
X41148Y574548D01*
X41148Y568452D01*
X47244Y562356D01*
X67056Y562356D01*
X124968Y620268D01*
X249936Y620268D01*
X50800Y609600D02*
X50292Y609600D01*
D25*
X301752Y539496D03*
D10*
X165100Y609600D02*
X127000Y609600D01*
X426720Y342900D02*
X431800Y342900D01*
X426720Y342900D02*
X367284Y402336D01*
X352044Y402336D01*
X339852Y414528D01*
X339852Y518160D01*
X324612Y533400D01*
X298704Y533400D01*
X222504Y609600D01*
X165100Y609600D01*
X256032Y623316D02*
X256032Y696468D01*
X231648Y720852D01*
X231648Y752856D01*
X240792Y762000D01*
X241300Y762000D01*
X457200Y391668D02*
X457200Y342900D01*
X457200Y391668D02*
X469392Y403860D01*
X469392Y431292D01*
X441960Y458724D01*
X440436Y458724D01*
X403860Y495300D01*
X403860Y510540D01*
X344424Y569976D01*
X344424Y615696D01*
D25*
X256032Y623316D03*
X344424Y615696D03*
D10*
X166116Y685800D02*
X166116Y723900D01*
X166116Y685800D02*
X165100Y685800D01*
X165100Y723900D02*
X166116Y723900D01*
X426720Y419100D02*
X431800Y419100D01*
X426720Y419100D02*
X385572Y460248D01*
X365760Y460248D01*
X356616Y469392D01*
X355600Y469900D01*
X279400Y723900D02*
X241300Y723900D01*
X451104Y419100D02*
X457200Y419100D01*
X451104Y419100D02*
X400812Y469392D01*
X381000Y469392D01*
X381000Y469900D01*
X280416Y697992D02*
X280416Y723900D01*
X280416Y697992D02*
X324612Y653796D01*
X324612Y542544D01*
X381000Y486156D01*
X381000Y469900D01*
X280416Y723900D02*
X279400Y723900D01*
X356616Y723900D02*
X356616Y762000D01*
X356616Y723900D02*
X355600Y723900D01*
X355600Y762000D02*
X356616Y762000D01*
X338328Y716280D02*
X338328Y583692D01*
X338328Y716280D02*
X283464Y771144D01*
X175260Y771144D01*
X166116Y762000D01*
X165100Y762000D01*
D25*
X338328Y583692D03*
D10*
X280416Y736092D02*
X280416Y762000D01*
X280416Y736092D02*
X330708Y685800D01*
X330708Y576072D01*
X280416Y762000D02*
X279400Y762000D01*
D25*
X330708Y576072D03*
D10*
X280416Y659892D02*
X280416Y685800D01*
X280416Y659892D02*
X321564Y618744D01*
X321564Y541020D01*
X345948Y516636D01*
X345948Y428244D01*
X355092Y419100D01*
X280416Y685800D02*
X279400Y685800D01*
X355092Y419100D02*
X355600Y419100D01*
X102108Y348996D02*
X102108Y342900D01*
X102108Y348996D02*
X163068Y409956D01*
X163068Y480060D01*
X234696Y551688D01*
X102108Y342900D02*
X101600Y342900D01*
X280416Y609600D02*
X280416Y647700D01*
X279400Y647700D01*
X279400Y609600D02*
X280416Y609600D01*
D25*
X234696Y551688D03*
D10*
X356616Y571500D02*
X356616Y597408D01*
X365760Y606552D01*
X365760Y638556D01*
X356616Y647700D01*
X356616Y571500D02*
X355600Y571500D01*
X355600Y647700D02*
X356616Y647700D01*
X178308Y419100D02*
X178308Y367284D01*
X202692Y342900D01*
X178308Y419100D02*
X177800Y419100D01*
X202692Y342900D02*
X203200Y342900D01*
X204216Y441960D02*
X204216Y469392D01*
X204216Y441960D02*
X252984Y393192D01*
X252984Y304800D01*
X204216Y469392D02*
X203200Y469900D01*
X230124Y214884D02*
X230124Y102108D01*
X230124Y214884D02*
X242316Y227076D01*
X242316Y294132D01*
X252984Y304800D01*
X230124Y102108D02*
X228854Y101600D01*
X252984Y304800D02*
X254000Y304800D01*
X152400Y280416D02*
X152400Y228600D01*
X152400Y280416D02*
X176784Y304800D01*
X177800Y304800D01*
X203200Y304800D01*
X256032Y100584D02*
X278892Y100584D01*
X256032Y100584D02*
X234696Y79248D01*
X224028Y79248D01*
X190500Y112776D01*
X190500Y190500D01*
X152400Y228600D01*
X278892Y101600D02*
X278892Y100584D01*
X127000Y469900D02*
X178308Y521208D01*
X179750Y520700D01*
X241300Y571500D02*
X256032Y571500D01*
X306324Y521208D01*
X316992Y521208D01*
X317500Y520700D01*
X128016Y265176D02*
X128016Y228600D01*
X128016Y265176D02*
X166116Y303276D01*
X166116Y473964D01*
X240792Y548640D01*
X240792Y571500D01*
X128016Y228600D02*
X127000Y228600D01*
X240792Y571500D02*
X241300Y571500D01*
D26*
X482600Y711200D02*
X609600Y711200D01*
X609600Y762000D01*
X609600Y711200D02*
X609600Y635000D01*
X685800Y762000D02*
X749300Y762000D01*
X685800Y762000D02*
X685800Y711200D01*
X914400Y381000D02*
X889000Y355600D01*
X762000Y355600D01*
X660400Y457200D01*
X660400Y508000D01*
D10*
X649224Y509016D02*
X571500Y509016D01*
X571500Y508000D01*
X649224Y509016D02*
X660400Y508000D01*
X495300Y509016D02*
X470916Y509016D01*
X469900Y508000D01*
X495300Y508000D02*
X495300Y509016D01*
X531876Y470916D02*
X545592Y470916D01*
X531876Y470916D02*
X495300Y507492D01*
X545592Y470916D02*
X546100Y469900D01*
X495300Y507492D02*
X495300Y508000D01*
X165100Y571500D02*
X127000Y571500D01*
D26*
X825500Y762000D02*
X889000Y762000D01*
X914400Y736600D01*
X952500Y698500D01*
X952500Y533400D01*
X914400Y533400D01*
D10*
X228600Y289560D02*
X228600Y228600D01*
X228600Y289560D02*
X239268Y300228D01*
X239268Y402336D01*
X181356Y460248D01*
X64008Y571500D02*
X50800Y571500D01*
X64008Y571500D02*
X219456Y726948D01*
X219456Y743712D01*
D25*
X181356Y460248D03*
X219456Y743712D03*
D10*
X204216Y419100D02*
X204216Y361188D01*
X228600Y336804D01*
X228600Y304800D01*
X204216Y419100D02*
X203200Y419100D01*
X71628Y723900D02*
X50800Y723900D01*
X71628Y723900D02*
X121920Y774192D01*
X284988Y774192D01*
X443484Y615696D01*
X443484Y470916D01*
X444500Y469900D01*
X484632Y429768D02*
X484632Y228600D01*
X484632Y429768D02*
X444500Y469900D01*
X484632Y228600D02*
X485300Y228600D01*
X96012Y323088D02*
X76200Y342900D01*
X96012Y323088D02*
X132588Y323088D01*
X152400Y342900D01*
X240792Y647700D02*
X240792Y673608D01*
X225552Y688848D01*
X225552Y752856D01*
X222504Y755904D01*
X172212Y755904D01*
X169164Y752856D01*
X149352Y752856D01*
X131064Y771144D01*
X123444Y771144D01*
X41148Y688848D01*
X41148Y656844D01*
X50292Y647700D01*
X240792Y647700D02*
X241300Y647700D01*
X50800Y647700D02*
X50292Y647700D01*
X50292Y736092D02*
X50292Y762000D01*
X50292Y736092D02*
X38100Y723900D01*
X38100Y495300D01*
X67056Y466344D01*
X67056Y188976D01*
X164592Y91440D01*
X164592Y86868D01*
X175260Y76200D01*
X304800Y76200D01*
X329184Y100584D01*
X50800Y762000D02*
X50292Y762000D01*
X330454Y101600D02*
X329184Y100584D01*
D26*
X482600Y596900D02*
X876300Y596900D01*
X787400Y508000D01*
X736600Y508000D01*
D10*
X394716Y507492D02*
X394716Y499872D01*
X458724Y435864D01*
X460248Y435864D01*
X466344Y429768D01*
X466344Y405384D01*
X441960Y381000D01*
X441960Y291084D01*
X422148Y271272D02*
X379476Y228600D01*
X422148Y271272D02*
X441960Y291084D01*
X394716Y507492D02*
X393700Y508000D01*
X379476Y228600D02*
X378300Y228600D01*
X839724Y102108D02*
X862584Y102108D01*
X839724Y102108D02*
X723900Y217932D01*
X475488Y217932D01*
X422148Y271272D01*
X862584Y102108D02*
X863092Y101600D01*
M02*
